<?xml version="1.0" encoding="UTF-8" standalone="no"?>
<!DOCTYPE svg PUBLIC "-//W3C//DTD SVG 1.1//EN"
 "http://www.w3.org/Graphics/SVG/1.1/DTD/svg11.dtd">
<!-- Generated by graphviz version 2.43.0 (0)
 -->
<!-- Title: %3 Pages: 1 -->
<svg width="266pt" height="582pt"
 viewBox="0.00 0.00 266.20 582.47" xmlns="http://www.w3.org/2000/svg" xmlns:xlink="http://www.w3.org/1999/xlink">
<g id="graph0" class="graph" transform="scale(1 1) rotate(0) translate(4 578.47)">
<title>%3</title>
<polygon fill="white" stroke="transparent" points="-4,4 -4,-578.47 262.2,-578.47 262.2,4 -4,4"/>
<!-- 1 -->
<g id="node1" class="node">
<title>1</title>
<ellipse fill="none" stroke="black" cx="124.2" cy="-546.52" rx="27.9" ry="27.9"/>
<text text-anchor="middle" x="124.2" y="-542.82" font-family="Times,serif" font-size="14.00">Start</text>
</g>
<!-- 2 -->
<g id="node2" class="node">
<title>2</title>
<ellipse fill="none" stroke="black" cx="44.2" cy="-423.38" rx="44.39" ry="44.39"/>
<text text-anchor="middle" x="44.2" y="-419.68" font-family="Times,serif" font-size="14.00">Position1</text>
</g>
<!-- 1&#45;&gt;2 -->
<g id="edge1" class="edge">
<title>1&#45;&gt;2</title>
<path fill="none" stroke="black" d="M96.34,-541.42C72.64,-536.3 40.01,-525.02 24.2,-500.57 18.68,-492.05 18.05,-482.06 19.93,-472.17"/>
<polygon fill="black" stroke="black" points="23.34,-472.94 22.56,-462.37 16.58,-471.12 23.34,-472.94"/>
<text text-anchor="middle" x="40.7" y="-489.37" font-family="Times,serif" font-size="14.00"> cycle</text>
</g>
<!-- 2&#45;&gt;1 -->
<g id="edge3" class="edge">
<title>2&#45;&gt;1</title>
<path fill="none" stroke="black" d="M60.3,-464.91C65.84,-476.86 72.59,-489.64 80.2,-500.57 84.85,-507.25 90.52,-513.85 96.22,-519.85"/>
<polygon fill="black" stroke="black" points="93.87,-522.45 103.39,-527.09 98.84,-517.53 93.87,-522.45"/>
<text text-anchor="middle" x="95.2" y="-489.37" font-family="Times,serif" font-size="14.00"> reset</text>
</g>
<!-- 3 -->
<g id="node3" class="node">
<title>3</title>
<ellipse fill="none" stroke="black" cx="110.2" cy="-283.98" rx="44.39" ry="44.39"/>
<text text-anchor="middle" x="110.2" y="-280.28" font-family="Times,serif" font-size="14.00">Position2</text>
</g>
<!-- 2&#45;&gt;3 -->
<g id="edge2" class="edge">
<title>2&#45;&gt;3</title>
<path fill="none" stroke="black" d="M60.86,-382.14C65.9,-370.45 71.6,-357.72 77.2,-346.18 79.44,-341.55 81.86,-336.76 84.32,-332"/>
<polygon fill="black" stroke="black" points="87.54,-333.4 89.09,-322.92 81.34,-330.14 87.54,-333.4"/>
<text text-anchor="middle" x="93.7" y="-349.98" font-family="Times,serif" font-size="14.00"> cycle</text>
</g>
<!-- 3&#45;&gt;1 -->
<g id="edge5" class="edge">
<title>3&#45;&gt;1</title>
<path fill="none" stroke="black" d="M112.53,-328.36C115.22,-378.55 119.62,-460.37 122.18,-507.95"/>
<polygon fill="black" stroke="black" points="118.69,-508.33 122.72,-518.13 125.68,-507.96 118.69,-508.33"/>
<text text-anchor="middle" x="134.2" y="-419.68" font-family="Times,serif" font-size="14.00"> reset</text>
</g>
<!-- 4 -->
<g id="node4" class="node">
<title>4</title>
<ellipse fill="none" stroke="black" cx="156.2" cy="-144.59" rx="44.39" ry="44.39"/>
<text text-anchor="middle" x="156.2" y="-140.89" font-family="Times,serif" font-size="14.00">Position3</text>
</g>
<!-- 3&#45;&gt;4 -->
<g id="edge4" class="edge">
<title>3&#45;&gt;4</title>
<path fill="none" stroke="black" d="M123.59,-241.82C127.32,-230.46 131.39,-218.14 135.2,-206.79 136.35,-203.34 137.56,-199.78 138.77,-196.2"/>
<polygon fill="black" stroke="black" points="142.09,-197.31 142,-186.71 135.46,-195.05 142.09,-197.31"/>
<text text-anchor="middle" x="151.7" y="-210.59" font-family="Times,serif" font-size="14.00"> cycle</text>
</g>
<!-- 4&#45;&gt;1 -->
<g id="edge7" class="edge">
<title>4&#45;&gt;1</title>
<path fill="none" stroke="black" d="M165.59,-187.9C166.67,-194.2 167.6,-200.65 168.2,-206.79 168.84,-213.42 168.35,-215.12 168.2,-221.79 165.63,-331.2 176.43,-360.63 153.2,-467.57 149.99,-482.33 144.56,-498.05 139.26,-511.47"/>
<polygon fill="black" stroke="black" points="136,-510.21 135.46,-520.79 142.48,-512.85 136,-510.21"/>
<text text-anchor="middle" x="183.2" y="-349.98" font-family="Times,serif" font-size="14.00"> reset</text>
</g>
<!-- 5 -->
<g id="node5" class="node">
<title>5</title>
<ellipse fill="none" stroke="black" cx="192.2" cy="-24.7" rx="24.9" ry="24.9"/>
<text text-anchor="middle" x="192.2" y="-21" font-family="Times,serif" font-size="14.00">End</text>
</g>
<!-- 4&#45;&gt;5 -->
<g id="edge6" class="edge">
<title>4&#45;&gt;5</title>
<path fill="none" stroke="black" d="M168.89,-102.03C173.28,-87.66 178.13,-71.78 182.26,-58.24"/>
<polygon fill="black" stroke="black" points="185.69,-58.99 185.26,-48.4 178.99,-56.94 185.69,-58.99"/>
<text text-anchor="middle" x="194.7" y="-71.2" font-family="Times,serif" font-size="14.00"> cycle</text>
</g>
<!-- 5&#45;&gt;1 -->
<g id="edge8" class="edge">
<title>5&#45;&gt;1</title>
<path fill="none" stroke="black" d="M204.68,-46.35C208.2,-52.89 211.73,-60.28 214.2,-67.4 225.47,-99.93 228.2,-109.16 228.2,-143.59 228.2,-424.38 228.2,-424.38 228.2,-424.38 228.2,-468.9 187.24,-505.25 156.74,-526.15"/>
<polygon fill="black" stroke="black" points="154.47,-523.45 148.06,-531.88 158.33,-529.29 154.47,-523.45"/>
<text text-anchor="middle" x="243.2" y="-280.28" font-family="Times,serif" font-size="14.00"> reset</text>
</g>
</g>
</svg>
