<?xml version="1.0" encoding="UTF-8" standalone="no"?>
<!DOCTYPE svg PUBLIC "-//W3C//DTD SVG 1.1//EN"
 "http://www.w3.org/Graphics/SVG/1.1/DTD/svg11.dtd">
<!-- Generated by graphviz version 2.43.0 (0)
 -->
<!-- Title: %3 Pages: 1 -->
<svg width="264pt" height="343pt"
 viewBox="0.00 0.00 264.20 342.68" xmlns="http://www.w3.org/2000/svg" xmlns:xlink="http://www.w3.org/1999/xlink">
<g id="graph0" class="graph" transform="scale(1 1) rotate(0) translate(4 338.68)">
<title>%3</title>
<polygon fill="white" stroke="transparent" points="-4,4 -4,-338.68 260.2,-338.68 260.2,4 -4,4"/>
<!-- 1 -->
<g id="node1" class="node">
<title>1</title>
<ellipse fill="none" stroke="black" cx="117.2" cy="-306.73" rx="27.9" ry="27.9"/>
<text text-anchor="middle" x="117.2" y="-303.03" font-family="Times,serif" font-size="14.00">Start</text>
</g>
<!-- 2 -->
<g id="node2" class="node">
<title>2</title>
<ellipse fill="none" stroke="black" cx="44.2" cy="-183.59" rx="44.39" ry="44.39"/>
<text text-anchor="middle" x="44.2" y="-179.89" font-family="Times,serif" font-size="14.00">Position1</text>
</g>
<!-- 1&#45;&gt;2 -->
<g id="edge2" class="edge">
<title>1&#45;&gt;2</title>
<path fill="none" stroke="black" d="M91.5,-295.38C76.79,-288.02 59.46,-276.62 50.2,-260.78 46.15,-253.86 43.67,-245.95 42.26,-237.92"/>
<polygon fill="black" stroke="black" points="45.7,-237.23 41,-227.73 38.75,-238.09 45.7,-237.23"/>
<text text-anchor="middle" x="59.7" y="-249.58" font-family="Times,serif" font-size="14.00"> set</text>
</g>
<!-- 3 -->
<g id="node3" class="node">
<title>3</title>
<ellipse fill="none" stroke="black" cx="150.2" cy="-183.59" rx="44.39" ry="44.39"/>
<text text-anchor="middle" x="150.2" y="-179.89" font-family="Times,serif" font-size="14.00">Position2</text>
</g>
<!-- 1&#45;&gt;3 -->
<g id="edge1" class="edge">
<title>1&#45;&gt;3</title>
<path fill="none" stroke="black" d="M124.36,-279.45C127.81,-266.77 132.07,-251.11 136.14,-236.2"/>
<polygon fill="black" stroke="black" points="139.52,-237.11 138.77,-226.54 132.76,-235.27 139.52,-237.11"/>
<text text-anchor="middle" x="149.7" y="-249.58" font-family="Times,serif" font-size="14.00"> cycle</text>
</g>
<!-- 2&#45;&gt;1 -->
<g id="edge3" class="edge">
<title>2&#45;&gt;1</title>
<path fill="none" stroke="black" d="M66.84,-222.17C76.75,-238.62 88.27,-257.72 97.78,-273.51"/>
<polygon fill="black" stroke="black" points="94.96,-275.62 103.12,-282.37 100.96,-272 94.96,-275.62"/>
<text text-anchor="middle" x="105.2" y="-249.58" font-family="Times,serif" font-size="14.00"> reset</text>
</g>
<!-- 4 -->
<g id="node4" class="node">
<title>4</title>
<ellipse fill="none" stroke="black" cx="121.2" cy="-44.2" rx="44.39" ry="44.39"/>
<text text-anchor="middle" x="121.2" y="-40.5" font-family="Times,serif" font-size="14.00">Position3</text>
</g>
<!-- 3&#45;&gt;4 -->
<g id="edge5" class="edge">
<title>3&#45;&gt;4</title>
<path fill="none" stroke="black" d="M118.22,-152.58C110.49,-143.4 103.29,-132.71 99.2,-121.39 95.93,-112.36 96.07,-102.59 98.02,-93.16"/>
<polygon fill="black" stroke="black" points="101.4,-94.06 100.62,-83.5 94.64,-92.24 101.4,-94.06"/>
<text text-anchor="middle" x="108.7" y="-110.19" font-family="Times,serif" font-size="14.00"> set</text>
</g>
<!-- 5 -->
<g id="node5" class="node">
<title>5</title>
<ellipse fill="none" stroke="black" cx="212.2" cy="-44.2" rx="24.9" ry="24.9"/>
<text text-anchor="middle" x="212.2" y="-40.5" font-family="Times,serif" font-size="14.00">End</text>
</g>
<!-- 3&#45;&gt;5 -->
<g id="edge4" class="edge">
<title>3&#45;&gt;5</title>
<path fill="none" stroke="black" d="M168.13,-142.85C177.72,-121.6 189.35,-95.83 198.25,-76.09"/>
<polygon fill="black" stroke="black" points="201.46,-77.49 202.38,-66.94 195.08,-74.61 201.46,-77.49"/>
<text text-anchor="middle" x="199.7" y="-110.19" font-family="Times,serif" font-size="14.00"> cycle</text>
</g>
<!-- 4&#45;&gt;3 -->
<g id="edge6" class="edge">
<title>4&#45;&gt;3</title>
<path fill="none" stroke="black" d="M130.15,-87.64C132.99,-101.09 136.17,-116.14 139.14,-130.21"/>
<polygon fill="black" stroke="black" points="135.77,-131.18 141.26,-140.24 142.62,-129.74 135.77,-131.18"/>
<text text-anchor="middle" x="152.2" y="-110.19" font-family="Times,serif" font-size="14.00"> reset</text>
</g>
<!-- 5&#45;&gt;1 -->
<g id="edge7" class="edge">
<title>5&#45;&gt;1</title>
<path fill="none" stroke="black" d="M216.86,-68.65C222.85,-104.98 229.6,-176.05 203.2,-227.78 191.04,-251.6 168.39,-271.67 149.38,-285.47"/>
<polygon fill="black" stroke="black" points="147.14,-282.77 140.95,-291.37 151.15,-288.5 147.14,-282.77"/>
<text text-anchor="middle" x="239.7" y="-179.89" font-family="Times,serif" font-size="14.00"> cycle</text>
</g>
</g>
</svg>
