<?xml version="1.0" encoding="UTF-8" standalone="no"?>
<!DOCTYPE svg PUBLIC "-//W3C//DTD SVG 1.1//EN"
 "http://www.w3.org/Graphics/SVG/1.1/DTD/svg11.dtd">
<!-- Generated by graphviz version 2.43.0 (0)
 -->
<!-- Title: %3 Pages: 1 -->
<svg width="215pt" height="582pt"
 viewBox="0.00 0.00 215.14 582.47" xmlns="http://www.w3.org/2000/svg" xmlns:xlink="http://www.w3.org/1999/xlink">
<g id="graph0" class="graph" transform="scale(1 1) rotate(0) translate(4 578.47)">
<title>%3</title>
<polygon fill="white" stroke="transparent" points="-4,4 -4,-578.47 211.14,-578.47 211.14,4 -4,4"/>
<!-- 1 -->
<g id="node1" class="node">
<title>1</title>
<ellipse fill="none" stroke="black" cx="133.2" cy="-546.52" rx="27.9" ry="27.9"/>
<text text-anchor="middle" x="133.2" y="-542.82" font-family="Times,serif" font-size="14.00">Start</text>
</g>
<!-- 1&#45;&gt;1 -->
<g id="edge2" class="edge">
<title>1&#45;&gt;1</title>
<path fill="none" stroke="black" d="M159.64,-556.21C170.24,-556.76 179.14,-553.53 179.14,-546.52 179.14,-541.92 175.31,-538.95 169.68,-537.6"/>
<polygon fill="black" stroke="black" points="169.88,-534.11 159.64,-536.83 169.34,-541.09 169.88,-534.11"/>
<text text-anchor="middle" x="193.14" y="-542.82" font-family="Times,serif" font-size="14.00"> hold</text>
</g>
<!-- 2 -->
<g id="node2" class="node">
<title>2</title>
<ellipse fill="none" stroke="black" cx="85.2" cy="-423.38" rx="44.39" ry="44.39"/>
<text text-anchor="middle" x="85.2" y="-419.68" font-family="Times,serif" font-size="14.00">Position1</text>
</g>
<!-- 1&#45;&gt;2 -->
<g id="edge1" class="edge">
<title>1&#45;&gt;2</title>
<path fill="none" stroke="black" d="M123.13,-520.12C117.9,-506.91 111.31,-490.28 105.09,-474.6"/>
<polygon fill="black" stroke="black" points="108.23,-473 101.29,-465 101.72,-475.58 108.23,-473"/>
<text text-anchor="middle" x="131.7" y="-489.37" font-family="Times,serif" font-size="14.00"> cycle</text>
</g>
<!-- 3 -->
<g id="node3" class="node">
<title>3</title>
<ellipse fill="none" stroke="black" cx="44.2" cy="-283.98" rx="44.39" ry="44.39"/>
<text text-anchor="middle" x="44.2" y="-280.28" font-family="Times,serif" font-size="14.00">Position2</text>
</g>
<!-- 2&#45;&gt;3 -->
<g id="edge3" class="edge">
<title>2&#45;&gt;3</title>
<path fill="none" stroke="black" d="M72.78,-380.78C68.61,-366.79 63.9,-351.02 59.53,-336.37"/>
<polygon fill="black" stroke="black" points="62.78,-335.02 56.57,-326.44 56.07,-337.02 62.78,-335.02"/>
<text text-anchor="middle" x="82.7" y="-349.98" font-family="Times,serif" font-size="14.00"> cycle</text>
</g>
<!-- 3&#45;&gt;3 -->
<g id="edge5" class="edge">
<title>3&#45;&gt;3</title>
<path fill="none" stroke="black" d="M86.64,-296.62C97.88,-295.9 106.39,-291.69 106.39,-283.98 106.39,-278.81 102.55,-275.21 96.62,-273.18"/>
<polygon fill="black" stroke="black" points="97.11,-269.72 86.64,-271.35 95.84,-276.6 97.11,-269.72"/>
<text text-anchor="middle" x="120.39" y="-280.28" font-family="Times,serif" font-size="14.00"> hold</text>
</g>
<!-- 4 -->
<g id="node4" class="node">
<title>4</title>
<ellipse fill="none" stroke="black" cx="85.2" cy="-144.59" rx="44.39" ry="44.39"/>
<text text-anchor="middle" x="85.2" y="-140.89" font-family="Times,serif" font-size="14.00">Position3</text>
</g>
<!-- 3&#45;&gt;4 -->
<g id="edge4" class="edge">
<title>3&#45;&gt;4</title>
<path fill="none" stroke="black" d="M56.61,-241.39C60.78,-227.4 65.49,-211.62 69.86,-196.97"/>
<polygon fill="black" stroke="black" points="73.32,-197.63 72.83,-187.05 66.61,-195.63 73.32,-197.63"/>
<text text-anchor="middle" x="82.7" y="-210.59" font-family="Times,serif" font-size="14.00"> cycle</text>
</g>
<!-- 5 -->
<g id="node5" class="node">
<title>5</title>
<ellipse fill="none" stroke="black" cx="134.2" cy="-24.7" rx="24.9" ry="24.9"/>
<text text-anchor="middle" x="134.2" y="-21" font-family="Times,serif" font-size="14.00">End</text>
</g>
<!-- 4&#45;&gt;5 -->
<g id="edge6" class="edge">
<title>4&#45;&gt;5</title>
<path fill="none" stroke="black" d="M101.92,-103.35C108.18,-88.28 115.2,-71.4 121.09,-57.23"/>
<polygon fill="black" stroke="black" points="124.36,-58.49 124.96,-47.91 117.89,-55.8 124.36,-58.49"/>
<text text-anchor="middle" x="132.7" y="-71.2" font-family="Times,serif" font-size="14.00"> cycle</text>
</g>
<!-- 5&#45;&gt;1 -->
<g id="edge8" class="edge">
<title>5&#45;&gt;1</title>
<path fill="none" stroke="black" d="M145,-47.26C155.6,-70.45 170.2,-108.71 170.2,-143.59 170.2,-424.38 170.2,-424.38 170.2,-424.38 170.2,-454.91 159.31,-487.97 149.35,-511.82"/>
<polygon fill="black" stroke="black" points="146.08,-510.56 145.31,-521.13 152.5,-513.35 146.08,-510.56"/>
<text text-anchor="middle" x="186.7" y="-280.28" font-family="Times,serif" font-size="14.00"> cycle</text>
</g>
<!-- 5&#45;&gt;5 -->
<g id="edge7" class="edge">
<title>5&#45;&gt;5</title>
<path fill="none" stroke="black" d="M157.47,-33.93C167.89,-34.81 176.89,-31.73 176.89,-24.7 176.89,-20.19 173.2,-17.31 167.8,-16.05"/>
<polygon fill="black" stroke="black" points="167.66,-12.54 157.47,-15.47 167.26,-19.53 167.66,-12.54"/>
<text text-anchor="middle" x="190.89" y="-21" font-family="Times,serif" font-size="14.00"> hold</text>
</g>
</g>
</svg>
