<?xml version="1.0" encoding="UTF-8" standalone="no"?>
<!DOCTYPE svg PUBLIC "-//W3C//DTD SVG 1.1//EN"
 "http://www.w3.org/Graphics/SVG/1.1/DTD/svg11.dtd">
<!-- Generated by graphviz version 2.43.0 (0)
 -->
<!-- Title: %3 Pages: 1 -->
<svg width="562pt" height="203pt"
 viewBox="0.00 0.00 561.89 203.29" xmlns="http://www.w3.org/2000/svg" xmlns:xlink="http://www.w3.org/1999/xlink">
<g id="graph0" class="graph" transform="scale(1 1) rotate(0) translate(4 199.29)">
<title>%3</title>
<polygon fill="white" stroke="transparent" points="-4,4 -4,-199.29 557.89,-199.29 557.89,4 -4,4"/>
<!-- 1 -->
<g id="node1" class="node">
<title>1</title>
<ellipse fill="none" stroke="black" cx="277.2" cy="-167.34" rx="27.9" ry="27.9"/>
<text text-anchor="middle" x="277.2" y="-163.64" font-family="Times,serif" font-size="14.00">Start</text>
</g>
<!-- 2 -->
<g id="node2" class="node">
<title>2</title>
<ellipse fill="none" stroke="black" cx="44.2" cy="-44.2" rx="44.39" ry="44.39"/>
<text text-anchor="middle" x="44.2" y="-40.5" font-family="Times,serif" font-size="14.00">Position1</text>
</g>
<!-- 1&#45;&gt;2 -->
<g id="edge1" class="edge">
<title>1&#45;&gt;2</title>
<path fill="none" stroke="black" d="M248.91,-165.24C192.47,-162.39 69.02,-152.65 43.2,-121.39 37.62,-114.65 35,-106.3 34.17,-97.64"/>
<polygon fill="black" stroke="black" points="37.66,-97.31 33.95,-87.39 30.66,-97.46 37.66,-97.31"/>
<text text-anchor="middle" x="70.7" y="-110.19" font-family="Times,serif" font-size="14.00"> Position1</text>
</g>
<!-- 3 -->
<g id="node3" class="node">
<title>3</title>
<ellipse fill="none" stroke="black" cx="197.2" cy="-44.2" rx="44.39" ry="44.39"/>
<text text-anchor="middle" x="197.2" y="-40.5" font-family="Times,serif" font-size="14.00">Position2</text>
</g>
<!-- 1&#45;&gt;3 -->
<g id="edge2" class="edge">
<title>1&#45;&gt;3</title>
<path fill="none" stroke="black" d="M249.48,-162.69C225.03,-157.83 190.76,-146.69 174.2,-121.39 168.35,-112.46 168.13,-101.97 170.67,-91.68"/>
<polygon fill="black" stroke="black" points="174.07,-92.53 173.86,-81.94 167.42,-90.35 174.07,-92.53"/>
<text text-anchor="middle" x="201.7" y="-110.19" font-family="Times,serif" font-size="14.00"> Position2</text>
</g>
<!-- 4 -->
<g id="node4" class="node">
<title>4</title>
<ellipse fill="none" stroke="black" cx="350.2" cy="-44.2" rx="44.39" ry="44.39"/>
<text text-anchor="middle" x="350.2" y="-40.5" font-family="Times,serif" font-size="14.00">Position3</text>
</g>
<!-- 1&#45;&gt;4 -->
<g id="edge3" class="edge">
<title>1&#45;&gt;4</title>
<path fill="none" stroke="black" d="M287.58,-141.28C292.45,-130.31 298.63,-117.46 305.2,-106.39 308.9,-100.15 313.09,-93.77 317.38,-87.6"/>
<polygon fill="black" stroke="black" points="320.31,-89.51 323.27,-79.33 314.61,-85.45 320.31,-89.51"/>
<text text-anchor="middle" x="332.7" y="-110.19" font-family="Times,serif" font-size="14.00"> Position3</text>
</g>
<!-- 5 -->
<g id="node5" class="node">
<title>5</title>
<ellipse fill="none" stroke="black" cx="483.2" cy="-44.2" rx="24.9" ry="24.9"/>
<text text-anchor="middle" x="483.2" y="-40.5" font-family="Times,serif" font-size="14.00">End</text>
</g>
<!-- 1&#45;&gt;5 -->
<g id="edge4" class="edge">
<title>1&#45;&gt;5</title>
<path fill="none" stroke="black" d="M304.33,-159.79C340.99,-149.77 406.61,-127.57 449.2,-88.39 454.08,-83.9 458.82,-78.66 463.14,-73.41"/>
<polygon fill="black" stroke="black" points="466.11,-75.28 469.53,-65.25 460.6,-70.97 466.11,-75.28"/>
<text text-anchor="middle" x="438.2" y="-110.19" font-family="Times,serif" font-size="14.00"> End</text>
</g>
<!-- 2&#45;&gt;1 -->
<g id="edge5" class="edge">
<title>2&#45;&gt;1</title>
<path fill="none" stroke="black" d="M75.18,-76C92.06,-91.38 113.99,-109.26 136.2,-121.39 169.27,-139.47 210.74,-151.59 240.12,-158.64"/>
<polygon fill="black" stroke="black" points="239.45,-162.08 249.98,-160.93 241.03,-155.26 239.45,-162.08"/>
<text text-anchor="middle" x="151.2" y="-110.19" font-family="Times,serif" font-size="14.00"> reset</text>
</g>
<!-- 2&#45;&gt;2 -->
<g id="edge9" class="edge">
<title>2&#45;&gt;2</title>
<path fill="none" stroke="black" d="M86.64,-56.83C97.88,-56.11 106.39,-51.9 106.39,-44.2 106.39,-39.02 102.55,-35.42 96.62,-33.4"/>
<polygon fill="black" stroke="black" points="97.11,-29.93 86.64,-31.56 95.84,-36.81 97.11,-29.93"/>
<text text-anchor="middle" x="120.39" y="-40.5" font-family="Times,serif" font-size="14.00"> hold</text>
</g>
<!-- 3&#45;&gt;1 -->
<g id="edge6" class="edge">
<title>3&#45;&gt;1</title>
<path fill="none" stroke="black" d="M221.3,-81.69C232.5,-98.66 245.7,-118.64 256.45,-134.93"/>
<polygon fill="black" stroke="black" points="253.72,-137.14 262.15,-143.55 259.56,-133.28 253.72,-137.14"/>
<text text-anchor="middle" x="262.2" y="-110.19" font-family="Times,serif" font-size="14.00"> reset</text>
</g>
<!-- 3&#45;&gt;3 -->
<g id="edge10" class="edge">
<title>3&#45;&gt;3</title>
<path fill="none" stroke="black" d="M239.64,-56.83C250.88,-56.11 259.39,-51.9 259.39,-44.2 259.39,-39.02 255.55,-35.42 249.62,-33.4"/>
<polygon fill="black" stroke="black" points="250.11,-29.93 239.64,-31.56 248.84,-36.81 250.11,-29.93"/>
<text text-anchor="middle" x="273.39" y="-40.5" font-family="Times,serif" font-size="14.00"> hold</text>
</g>
<!-- 4&#45;&gt;1 -->
<g id="edge7" class="edge">
<title>4&#45;&gt;1</title>
<path fill="none" stroke="black" d="M364.98,-85.96C366.95,-98.04 366.48,-110.85 360.2,-121.39 350.17,-138.22 331.41,-149.13 314.26,-155.99"/>
<polygon fill="black" stroke="black" points="312.62,-152.86 304.42,-159.57 315.02,-159.43 312.62,-152.86"/>
<text text-anchor="middle" x="380.2" y="-110.19" font-family="Times,serif" font-size="14.00"> reset</text>
</g>
<!-- 4&#45;&gt;4 -->
<g id="edge11" class="edge">
<title>4&#45;&gt;4</title>
<path fill="none" stroke="black" d="M392.64,-56.83C403.88,-56.11 412.39,-51.9 412.39,-44.2 412.39,-39.02 408.55,-35.42 402.62,-33.4"/>
<polygon fill="black" stroke="black" points="403.11,-29.93 392.64,-31.56 401.84,-36.81 403.11,-29.93"/>
<text text-anchor="middle" x="426.39" y="-40.5" font-family="Times,serif" font-size="14.00"> hold</text>
</g>
<!-- 5&#45;&gt;1 -->
<g id="edge8" class="edge">
<title>5&#45;&gt;1</title>
<path fill="none" stroke="black" d="M480.4,-68.75C477.16,-85.71 470.17,-107.91 455.2,-121.39 416.6,-156.14 355.03,-164.86 315.36,-166.61"/>
<polygon fill="black" stroke="black" points="315.17,-163.12 305.28,-166.93 315.39,-170.12 315.17,-163.12"/>
<text text-anchor="middle" x="481.2" y="-110.19" font-family="Times,serif" font-size="14.00"> reset</text>
</g>
<!-- 5&#45;&gt;5 -->
<g id="edge12" class="edge">
<title>5&#45;&gt;5</title>
<path fill="none" stroke="black" d="M504.73,-56.5C515.86,-58.39 525.89,-54.29 525.89,-44.2 525.89,-37.41 521.36,-33.34 515.01,-31.97"/>
<polygon fill="black" stroke="black" points="514.75,-28.47 504.73,-31.89 514.7,-35.47 514.75,-28.47"/>
<text text-anchor="middle" x="539.89" y="-40.5" font-family="Times,serif" font-size="14.00"> hold</text>
</g>
</g>
</svg>
