<?xml version="1.0" encoding="UTF-8" standalone="no"?>
<!DOCTYPE svg PUBLIC "-//W3C//DTD SVG 1.1//EN"
 "http://www.w3.org/Graphics/SVG/1.1/DTD/svg11.dtd">
<!-- Generated by graphviz version 2.43.0 (0)
 -->
<!-- Title: %3 Pages: 1 -->
<svg width="301pt" height="582pt"
 viewBox="0.00 0.00 301.20 582.47" xmlns="http://www.w3.org/2000/svg" xmlns:xlink="http://www.w3.org/1999/xlink">
<g id="graph0" class="graph" transform="scale(1 1) rotate(0) translate(4 578.47)">
<title>%3</title>
<polygon fill="white" stroke="transparent" points="-4,4 -4,-578.47 297.2,-578.47 297.2,4 -4,4"/>
<!-- 1 -->
<g id="node1" class="node">
<title>1</title>
<ellipse fill="none" stroke="black" cx="210.2" cy="-546.52" rx="27.9" ry="27.9"/>
<text text-anchor="middle" x="210.2" y="-542.82" font-family="Times,serif" font-size="14.00">Start</text>
</g>
<!-- 2 -->
<g id="node2" class="node">
<title>2</title>
<ellipse fill="none" stroke="black" cx="44.2" cy="-423.38" rx="44.39" ry="44.39"/>
<text text-anchor="middle" x="44.2" y="-419.68" font-family="Times,serif" font-size="14.00">Position1</text>
</g>
<!-- 1&#45;&gt;2 -->
<g id="edge1" class="edge">
<title>1&#45;&gt;2</title>
<path fill="none" stroke="black" d="M187.81,-529.18C162.3,-510.57 120,-479.69 87.89,-456.26"/>
<polygon fill="black" stroke="black" points="89.69,-453.24 79.55,-450.18 85.56,-458.9 89.69,-453.24"/>
<text text-anchor="middle" x="163.7" y="-489.37" font-family="Times,serif" font-size="14.00"> cycle</text>
</g>
<!-- 3 -->
<g id="node3" class="node">
<title>3</title>
<ellipse fill="none" stroke="black" cx="106.2" cy="-283.98" rx="44.39" ry="44.39"/>
<text text-anchor="middle" x="106.2" y="-280.28" font-family="Times,serif" font-size="14.00">Position2</text>
</g>
<!-- 2&#45;&gt;3 -->
<g id="edge2" class="edge">
<title>2&#45;&gt;3</title>
<path fill="none" stroke="black" d="M62.13,-382.64C69.01,-367.4 76.93,-349.84 84.15,-333.84"/>
<polygon fill="black" stroke="black" points="87.38,-335.19 88.3,-324.63 81,-332.31 87.38,-335.19"/>
<text text-anchor="middle" x="93.7" y="-349.98" font-family="Times,serif" font-size="14.00"> cycle</text>
</g>
<!-- 5 -->
<g id="node5" class="node">
<title>5</title>
<ellipse fill="none" stroke="black" cx="116.2" cy="-24.7" rx="24.9" ry="24.9"/>
<text text-anchor="middle" x="116.2" y="-21" font-family="Times,serif" font-size="14.00">End</text>
</g>
<!-- 2&#45;&gt;5 -->
<g id="edge5" class="edge">
<title>2&#45;&gt;5</title>
<path fill="none" stroke="black" d="M44.74,-379.08C45.59,-342 47.74,-287.24 53.2,-239.79 59.93,-181.25 92.36,-74.93 95.2,-67.4 96.63,-63.58 98.31,-59.65 100.09,-55.8"/>
<polygon fill="black" stroke="black" points="103.38,-57.04 104.61,-46.52 97.09,-53.97 103.38,-57.04"/>
<text text-anchor="middle" x="75.2" y="-210.59" font-family="Times,serif" font-size="14.00"> sleep</text>
</g>
<!-- 4 -->
<g id="node4" class="node">
<title>4</title>
<ellipse fill="none" stroke="black" cx="210.2" cy="-144.59" rx="44.39" ry="44.39"/>
<text text-anchor="middle" x="210.2" y="-140.89" font-family="Times,serif" font-size="14.00">Position3</text>
</g>
<!-- 3&#45;&gt;4 -->
<g id="edge3" class="edge">
<title>3&#45;&gt;4</title>
<path fill="none" stroke="black" d="M132.21,-248.02C141.9,-235.04 153.02,-220.22 163.2,-206.79 167.7,-200.84 172.47,-194.59 177.18,-188.44"/>
<polygon fill="black" stroke="black" points="180.22,-190.23 183.52,-180.16 174.66,-185.97 180.22,-190.23"/>
<text text-anchor="middle" x="179.7" y="-210.59" font-family="Times,serif" font-size="14.00"> cycle</text>
</g>
<!-- 3&#45;&gt;5 -->
<g id="edge6" class="edge">
<title>3&#45;&gt;5</title>
<path fill="none" stroke="black" d="M107.88,-239.63C109.85,-188.88 113.08,-105.89 114.88,-59.6"/>
<polygon fill="black" stroke="black" points="118.38,-59.62 115.27,-49.49 111.39,-59.35 118.38,-59.62"/>
<text text-anchor="middle" x="129.2" y="-140.89" font-family="Times,serif" font-size="14.00"> sleep</text>
</g>
<!-- 4&#45;&gt;1 -->
<g id="edge4" class="edge">
<title>4&#45;&gt;1</title>
<path fill="none" stroke="black" d="M210.2,-188.91C210.2,-267.82 210.2,-433.69 210.2,-508.06"/>
<polygon fill="black" stroke="black" points="206.7,-508.35 210.2,-518.35 213.7,-508.35 206.7,-508.35"/>
<text text-anchor="middle" x="226.7" y="-349.98" font-family="Times,serif" font-size="14.00"> cycle</text>
</g>
<!-- 4&#45;&gt;5 -->
<g id="edge7" class="edge">
<title>4&#45;&gt;5</title>
<path fill="none" stroke="black" d="M179.54,-112.75C170.69,-103.3 161.25,-92.69 153.2,-82.4 146.46,-73.79 139.73,-63.95 133.9,-54.91"/>
<polygon fill="black" stroke="black" points="136.7,-52.8 128.4,-46.22 130.79,-56.54 136.7,-52.8"/>
<text text-anchor="middle" x="169.2" y="-71.2" font-family="Times,serif" font-size="14.00"> sleep</text>
</g>
<!-- 5&#45;&gt;1 -->
<g id="edge9" class="edge">
<title>5&#45;&gt;1</title>
<path fill="none" stroke="black" d="M140.33,-30.94C186.37,-42.5 282.2,-74.84 282.2,-143.59 282.2,-424.38 282.2,-424.38 282.2,-424.38 282.2,-460.93 257.68,-496.07 237.26,-519"/>
<polygon fill="black" stroke="black" points="234.47,-516.87 230.25,-526.59 239.61,-521.62 234.47,-516.87"/>
<text text-anchor="middle" x="287.7" y="-280.28" font-family="Times,serif" font-size="14.00"> 1</text>
</g>
<!-- 5&#45;&gt;2 -->
<g id="edge10" class="edge">
<title>5&#45;&gt;2</title>
<path fill="none" stroke="black" d="M99.19,-42.83C86.12,-57.04 68.75,-78.4 59.2,-100.4 20.9,-188.58 27.25,-303.42 35.57,-369.42"/>
<polygon fill="black" stroke="black" points="32.13,-370.13 36.92,-379.58 39.07,-369.21 32.13,-370.13"/>
<text text-anchor="middle" x="38.7" y="-210.59" font-family="Times,serif" font-size="14.00"> 2</text>
</g>
<!-- 5&#45;&gt;3 -->
<g id="edge11" class="edge">
<title>5&#45;&gt;3</title>
<path fill="none" stroke="black" d="M108.11,-48.24C103.3,-62.89 97.66,-82.51 95.2,-100.4 89.19,-143.96 92.9,-193.82 97.57,-230.42"/>
<polygon fill="black" stroke="black" points="94.11,-230.93 98.91,-240.37 101.05,-230 94.11,-230.93"/>
<text text-anchor="middle" x="100.7" y="-140.89" font-family="Times,serif" font-size="14.00"> 3</text>
</g>
<!-- 5&#45;&gt;4 -->
<g id="edge12" class="edge">
<title>5&#45;&gt;4</title>
<path fill="none" stroke="black" d="M139,-34.47C154.06,-41.35 173.17,-52.28 185.2,-67.4 190.8,-74.44 195.17,-82.79 198.57,-91.33"/>
<polygon fill="black" stroke="black" points="195.36,-92.75 202.01,-101 201.95,-90.4 195.36,-92.75"/>
<text text-anchor="middle" x="199.7" y="-71.2" font-family="Times,serif" font-size="14.00"> 4</text>
</g>
<!-- 5&#45;&gt;5 -->
<g id="edge8" class="edge">
<title>5&#45;&gt;5</title>
<path fill="none" stroke="black" d="M139.47,-33.93C149.89,-34.81 158.89,-31.73 158.89,-24.7 158.89,-20.19 155.2,-17.31 149.8,-16.05"/>
<polygon fill="black" stroke="black" points="149.66,-12.54 139.47,-15.47 149.26,-19.53 149.66,-12.54"/>
<text text-anchor="middle" x="174.89" y="-21" font-family="Times,serif" font-size="14.00"> sleep</text>
</g>
</g>
</svg>
