<?xml version="1.0" encoding="UTF-8" standalone="no"?>
<!DOCTYPE svg PUBLIC "-//W3C//DTD SVG 1.1//EN"
 "http://www.w3.org/Graphics/SVG/1.1/DTD/svg11.dtd">
<!-- Generated by graphviz version 2.43.0 (0)
 -->
<!-- Title: %3 Pages: 1 -->
<svg width="386pt" height="582pt"
 viewBox="0.00 0.00 386.00 582.47" xmlns="http://www.w3.org/2000/svg" xmlns:xlink="http://www.w3.org/1999/xlink">
<g id="graph0" class="graph" transform="scale(1 1) rotate(0) translate(4 578.47)">
<title>%3</title>
<polygon fill="white" stroke="transparent" points="-4,4 -4,-578.47 382,-578.47 382,4 -4,4"/>
<!-- 1 -->
<g id="node1" class="node">
<title>1</title>
<ellipse fill="none" stroke="black" cx="131" cy="-546.52" rx="27.9" ry="27.9"/>
<text text-anchor="middle" x="131" y="-542.82" font-family="Times,serif" font-size="14.00">Start</text>
</g>
<!-- 2 -->
<g id="node2" class="node">
<title>2</title>
<ellipse fill="none" stroke="black" cx="135" cy="-44.2" rx="44.39" ry="44.39"/>
<text text-anchor="middle" x="135" y="-40.5" font-family="Times,serif" font-size="14.00">Position1</text>
</g>
<!-- 1&#45;&gt;2 -->
<g id="edge1" class="edge">
<title>1&#45;&gt;2</title>
<path fill="none" stroke="black" d="M105.12,-535.41C66.94,-518.61 0,-481.06 0,-424.38 0,-424.38 0,-424.38 0,-163.09 0,-116.42 46.33,-83.97 84.71,-65.1"/>
<polygon fill="black" stroke="black" points="86.22,-68.26 93.76,-60.82 83.23,-61.93 86.22,-68.26"/>
<text text-anchor="middle" x="16.5" y="-280.28" font-family="Times,serif" font-size="14.00"> cycle</text>
</g>
<!-- 3 -->
<g id="node3" class="node">
<title>3</title>
<ellipse fill="none" stroke="black" cx="147" cy="-423.38" rx="44.39" ry="44.39"/>
<text text-anchor="middle" x="147" y="-419.68" font-family="Times,serif" font-size="14.00">Position2</text>
</g>
<!-- 1&#45;&gt;3 -->
<g id="edge3" class="edge">
<title>1&#45;&gt;3</title>
<path fill="none" stroke="black" d="M112.86,-524.95C105.06,-513.62 98.63,-499.13 103,-485.57 105.23,-478.64 108.58,-471.82 112.44,-465.41"/>
<polygon fill="black" stroke="black" points="115.44,-467.21 117.98,-456.93 109.58,-463.38 115.44,-467.21"/>
<text text-anchor="middle" x="120.5" y="-489.37" font-family="Times,serif" font-size="14.00"> pause</text>
</g>
<!-- 2&#45;&gt;1 -->
<g id="edge2" class="edge">
<title>2&#45;&gt;1</title>
<path fill="none" stroke="black" d="M105.47,-77.1C87.9,-99.45 69,-130.95 69,-163.09 69,-424.38 69,-424.38 69,-424.38 69,-458.89 89.18,-493.45 106.52,-516.78"/>
<polygon fill="black" stroke="black" points="103.86,-519.06 112.73,-524.84 109.4,-514.78 103.86,-519.06"/>
<text text-anchor="middle" x="85.5" y="-280.28" font-family="Times,serif" font-size="14.00"> cycle</text>
</g>
<!-- 3&#45;&gt;1 -->
<g id="edge7" class="edge">
<title>3&#45;&gt;1</title>
<path fill="none" stroke="black" d="M142.18,-467.53C140.9,-478.33 139.46,-489.88 138,-500.57 137.65,-503.11 137.28,-505.72 136.9,-508.35"/>
<polygon fill="black" stroke="black" points="133.41,-508.04 135.38,-518.45 140.33,-509.08 133.41,-508.04"/>
<text text-anchor="middle" x="167.5" y="-489.37" font-family="Times,serif" font-size="14.00"> shutdown</text>
</g>
<!-- 3&#45;&gt;2 -->
<g id="edge10" class="edge">
<title>3&#45;&gt;2</title>
<path fill="none" stroke="black" d="M145.62,-379.11C143.42,-309.81 139.1,-174.07 136.7,-98.75"/>
<polygon fill="black" stroke="black" points="140.2,-98.42 136.38,-88.54 133.2,-98.64 140.2,-98.42"/>
<text text-anchor="middle" x="163" y="-210.59" font-family="Times,serif" font-size="14.00"> wakeup</text>
</g>
<!-- 4 -->
<g id="node4" class="node">
<title>4</title>
<ellipse fill="none" stroke="black" cx="220" cy="-283.98" rx="44.39" ry="44.39"/>
<text text-anchor="middle" x="220" y="-280.28" font-family="Times,serif" font-size="14.00">Position3</text>
</g>
<!-- 3&#45;&gt;4 -->
<g id="edge4" class="edge">
<title>3&#45;&gt;4</title>
<path fill="none" stroke="black" d="M164.74,-382.84C170.33,-370.93 176.7,-357.91 183,-346.18 185.75,-341.06 188.72,-335.78 191.76,-330.55"/>
<polygon fill="black" stroke="black" points="194.82,-332.24 196.88,-321.85 188.79,-328.69 194.82,-332.24"/>
<text text-anchor="middle" x="200.5" y="-349.98" font-family="Times,serif" font-size="14.00"> pause</text>
</g>
<!-- 4&#45;&gt;1 -->
<g id="edge8" class="edge">
<title>4&#45;&gt;1</title>
<path fill="none" stroke="black" d="M226.77,-327.85C231.77,-374.13 232.89,-448.21 200,-500.57 191.92,-513.43 178.67,-523.36 165.92,-530.57"/>
<polygon fill="black" stroke="black" points="164.05,-527.6 156.82,-535.35 167.3,-533.8 164.05,-527.6"/>
<text text-anchor="middle" x="257.5" y="-419.68" font-family="Times,serif" font-size="14.00"> shutdown</text>
</g>
<!-- 4&#45;&gt;2 -->
<g id="edge11" class="edge">
<title>4&#45;&gt;2</title>
<path fill="none" stroke="black" d="M205.39,-242.11C190.87,-201.49 168.58,-139.13 152.98,-95.5"/>
<polygon fill="black" stroke="black" points="156.23,-94.18 149.56,-85.94 149.63,-96.53 156.23,-94.18"/>
<text text-anchor="middle" x="208" y="-160.39" font-family="Times,serif" font-size="14.00"> wakeup</text>
</g>
<!-- 5 -->
<g id="node5" class="node">
<title>5</title>
<ellipse fill="none" stroke="black" cx="285" cy="-164.09" rx="24.9" ry="24.9"/>
<text text-anchor="middle" x="285" y="-160.39" font-family="Times,serif" font-size="14.00">End</text>
</g>
<!-- 4&#45;&gt;5 -->
<g id="edge5" class="edge">
<title>4&#45;&gt;5</title>
<path fill="none" stroke="black" d="M240.92,-245.03C249.84,-228.87 260.09,-210.28 268.46,-195.1"/>
<polygon fill="black" stroke="black" points="271.63,-196.58 273.4,-186.14 265.5,-193.2 271.63,-196.58"/>
<text text-anchor="middle" x="277.5" y="-210.59" font-family="Times,serif" font-size="14.00"> pause</text>
</g>
<!-- 5&#45;&gt;1 -->
<g id="edge9" class="edge">
<title>5&#45;&gt;1</title>
<path fill="none" stroke="black" d="M293.15,-187.51C311.08,-241.02 347.91,-378.37 290,-467.57 262.92,-509.29 206.56,-529.41 168.75,-538.57"/>
<polygon fill="black" stroke="black" points="167.59,-535.24 158.61,-540.87 169.14,-542.07 167.59,-535.24"/>
<text text-anchor="middle" x="349.5" y="-349.98" font-family="Times,serif" font-size="14.00"> shutdown</text>
</g>
<!-- 5&#45;&gt;2 -->
<g id="edge12" class="edge">
<title>5&#45;&gt;2</title>
<path fill="none" stroke="black" d="M266,-148.16C243.88,-130.77 206.66,-101.51 177.53,-78.62"/>
<polygon fill="black" stroke="black" points="179.57,-75.78 169.55,-72.35 175.25,-81.28 179.57,-75.78"/>
<text text-anchor="middle" x="250" y="-110.19" font-family="Times,serif" font-size="14.00"> wakeup</text>
</g>
<!-- 5&#45;&gt;5 -->
<g id="edge6" class="edge">
<title>5&#45;&gt;5</title>
<path fill="none" stroke="black" d="M308.28,-173.32C318.69,-174.2 327.7,-171.12 327.7,-164.09 327.7,-159.59 324,-156.7 318.61,-155.45"/>
<polygon fill="black" stroke="black" points="318.46,-151.93 308.28,-154.86 318.06,-158.92 318.46,-151.93"/>
<text text-anchor="middle" x="345.2" y="-160.39" font-family="Times,serif" font-size="14.00"> pause</text>
</g>
</g>
</svg>
