<?xml version="1.0" encoding="UTF-8" standalone="no"?>
<!DOCTYPE svg PUBLIC "-//W3C//DTD SVG 1.1//EN"
 "http://www.w3.org/Graphics/SVG/1.1/DTD/svg11.dtd">
<!-- Generated by graphviz version 2.43.0 (0)
 -->
<!-- Title: %3 Pages: 1 -->
<svg width="441pt" height="136pt"
 viewBox="0.00 0.00 441.48 136.30" xmlns="http://www.w3.org/2000/svg" xmlns:xlink="http://www.w3.org/1999/xlink">
<g id="graph0" class="graph" transform="scale(1 1) rotate(0) translate(4 132.3)">
<title>%3</title>
<polygon fill="white" stroke="transparent" points="-4,4 -4,-132.3 437.48,-132.3 437.48,4 -4,4"/>
<!-- 0 -->
<g id="node1" class="node">
<title>0</title>
<ellipse fill="none" stroke="black" cx="20.15" cy="-29.15" rx="20.3" ry="20.3"/>
<text text-anchor="middle" x="20.15" y="-25.45" font-family="Times,serif" font-size="14.00">S0</text>
</g>
<!-- 0&#45;&gt;0 -->
<g id="edge5" class="edge">
<title>0&#45;&gt;0</title>
<path fill="none" stroke="red" d="M11.58,-47.6C9.98,-57.85 12.84,-67.3 20.15,-67.3 24.83,-67.3 27.69,-63.42 28.72,-57.94"/>
<polygon fill="red" stroke="red" points="32.22,-57.6 28.72,-47.6 25.22,-57.6 32.22,-57.6"/>
<text text-anchor="middle" x="20.15" y="-71.1" font-family="Times,serif" font-size="14.00"> 0/0</text>
</g>
<!-- 1 -->
<g id="node2" class="node">
<title>1</title>
<ellipse fill="none" stroke="black" cx="118.44" cy="-75.15" rx="20.3" ry="20.3"/>
<text text-anchor="middle" x="118.44" y="-71.45" font-family="Times,serif" font-size="14.00">S1</text>
</g>
<!-- 0&#45;&gt;1 -->
<g id="edge1" class="edge">
<title>0&#45;&gt;1</title>
<path fill="none" stroke="green" d="M38.81,-37.59C53.33,-44.52 74.15,-54.47 90.71,-62.38"/>
<polygon fill="green" stroke="green" points="89.36,-65.61 99.89,-66.76 92.38,-59.3 89.36,-65.61"/>
<text text-anchor="middle" x="69.3" y="-59.95" font-family="Times,serif" font-size="14.00"> 1/0</text>
</g>
<!-- 1&#45;&gt;1 -->
<g id="edge7" class="edge">
<title>1&#45;&gt;1</title>
<path fill="none" stroke="orange" d="M109.88,-93.6C108.28,-103.85 111.13,-113.3 118.44,-113.3 123.13,-113.3 125.99,-109.42 127.01,-103.94"/>
<polygon fill="orange" stroke="orange" points="130.51,-103.6 127.01,-93.6 123.51,-103.6 130.51,-103.6"/>
<text text-anchor="middle" x="118.44" y="-117.1" font-family="Times,serif" font-size="14.00"> 1/0</text>
</g>
<!-- 2 -->
<g id="node3" class="node">
<title>2</title>
<ellipse fill="none" stroke="black" cx="216.74" cy="-66.15" rx="20.3" ry="20.3"/>
<text text-anchor="middle" x="216.74" y="-62.45" font-family="Times,serif" font-size="14.00">S2</text>
</g>
<!-- 1&#45;&gt;2 -->
<g id="edge2" class="edge">
<title>1&#45;&gt;2</title>
<path fill="none" stroke="green" d="M138.93,-73.33C152.6,-72.05 171.1,-70.32 186.52,-68.88"/>
<polygon fill="green" stroke="green" points="186.98,-72.35 196.61,-67.94 186.33,-65.38 186.98,-72.35"/>
<text text-anchor="middle" x="167.59" y="-74.95" font-family="Times,serif" font-size="14.00"> 0/0</text>
</g>
<!-- 2&#45;&gt;1 -->
<g id="edge9" class="edge">
<title>2&#45;&gt;1</title>
<path fill="none" stroke="blue" d="M198.83,-56.47C186.96,-50.92 170.74,-45.83 156.59,-50.15 151.82,-51.6 147.11,-53.9 142.73,-56.52"/>
<polygon fill="blue" stroke="blue" points="140.63,-53.72 134.28,-62.2 144.54,-59.52 140.63,-53.72"/>
<text text-anchor="middle" x="167.59" y="-53.95" font-family="Times,serif" font-size="14.00"> 1/0</text>
</g>
<!-- 3 -->
<g id="node4" class="node">
<title>3</title>
<ellipse fill="none" stroke="black" cx="315.04" cy="-20.15" rx="20.3" ry="20.3"/>
<text text-anchor="middle" x="315.04" y="-16.45" font-family="Times,serif" font-size="14.00">S3</text>
</g>
<!-- 2&#45;&gt;3 -->
<g id="edge3" class="edge">
<title>2&#45;&gt;3</title>
<path fill="none" stroke="green" d="M235.05,-57.09C241.27,-53.89 248.37,-50.3 254.89,-47.15 265.36,-42.08 276.99,-36.72 287.14,-32.12"/>
<polygon fill="green" stroke="green" points="288.66,-35.28 296.34,-27.98 285.79,-28.89 288.66,-35.28"/>
<text text-anchor="middle" x="265.89" y="-50.95" font-family="Times,serif" font-size="14.00"> 0/0</text>
</g>
<!-- 3&#45;&gt;0 -->
<g id="edge6" class="edge">
<title>3&#45;&gt;0</title>
<path fill="none" stroke="red" d="M294.75,-20.74C244.71,-22.28 110.47,-26.4 50.64,-28.24"/>
<polygon fill="red" stroke="red" points="50.25,-24.75 40.37,-28.56 50.47,-31.75 50.25,-24.75"/>
<text text-anchor="middle" x="167.59" y="-27.95" font-family="Times,serif" font-size="14.00"> 0/0</text>
</g>
<!-- 4 -->
<g id="node5" class="node">
<title>4</title>
<ellipse fill="none" stroke="black" cx="413.33" cy="-76.15" rx="20.3" ry="20.3"/>
<text text-anchor="middle" x="413.33" y="-72.45" font-family="Times,serif" font-size="14.00">S4</text>
</g>
<!-- 3&#45;&gt;4 -->
<g id="edge4" class="edge">
<title>3&#45;&gt;4</title>
<path fill="none" stroke="green" d="M334.19,-27.13C346.19,-32.06 362.06,-39.18 375.19,-47.15 379.99,-50.07 384.9,-53.51 389.5,-56.98"/>
<polygon fill="green" stroke="green" points="387.35,-59.74 397.37,-63.17 391.67,-54.24 387.35,-59.74"/>
<text text-anchor="middle" x="364.19" y="-50.95" font-family="Times,serif" font-size="14.00"> 1/1</text>
</g>
<!-- 4&#45;&gt;1 -->
<g id="edge8" class="edge">
<title>4&#45;&gt;1</title>
<path fill="none" stroke="orange" d="M394,-82.42C388.07,-84.22 381.4,-86.01 375.19,-87.15 297.03,-101.48 275.89,-100.09 196.59,-95.15 178.71,-94.03 173.93,-94.65 156.59,-90.15 153.19,-89.26 149.68,-88.15 146.25,-86.92"/>
<polygon fill="orange" stroke="orange" points="147.48,-83.64 136.89,-83.28 144.94,-90.17 147.48,-83.64"/>
<text text-anchor="middle" x="265.89" y="-101.95" font-family="Times,serif" font-size="14.00"> 1/0</text>
</g>
<!-- 4&#45;&gt;2 -->
<g id="edge10" class="edge">
<title>4&#45;&gt;2</title>
<path fill="none" stroke="blue" d="M393.04,-75.16C358.86,-73.4 287.47,-69.73 247.13,-67.66"/>
<polygon fill="blue" stroke="blue" points="247.28,-64.16 237.11,-67.14 246.92,-71.15 247.28,-64.16"/>
<text text-anchor="middle" x="315.04" y="-74.95" font-family="Times,serif" font-size="14.00"> 0/1</text>
</g>
</g>
</svg>
