<?xml version="1.0" encoding="UTF-8" standalone="no"?>
<!DOCTYPE svg PUBLIC "-//W3C//DTD SVG 1.1//EN"
 "http://www.w3.org/Graphics/SVG/1.1/DTD/svg11.dtd">
<!-- Generated by graphviz version 2.43.0 (0)
 -->
<!-- Title: %3 Pages: 1 -->
<svg width="585pt" height="202pt"
 viewBox="0.00 0.00 584.87 201.70" xmlns="http://www.w3.org/2000/svg" xmlns:xlink="http://www.w3.org/1999/xlink">
<g id="graph0" class="graph" transform="scale(1 1) rotate(0) translate(4 197.7)">
<title>%3</title>
<polygon fill="white" stroke="transparent" points="-4,4 -4,-197.7 580.87,-197.7 580.87,4 -4,4"/>
<!-- 0 -->
<g id="node1" class="node">
<title>0</title>
<ellipse fill="none" stroke="black" cx="37.7" cy="-37.7" rx="37.89" ry="37.89"/>
<text text-anchor="middle" x="37.7" y="-34" font-family="Times,serif" font-size="14.00">IDLE/0</text>
</g>
<!-- 0&#45;&gt;0 -->
<g id="edge6" class="edge">
<title>0&#45;&gt;0</title>
<path fill="none" stroke="red" d="M26.46,-73.86C26.75,-84.82 30.49,-93.39 37.7,-93.39 42.43,-93.39 45.66,-89.7 47.41,-84.06"/>
<polygon fill="red" stroke="red" points="50.92,-84.26 48.93,-73.86 44,-83.23 50.92,-84.26"/>
<text text-anchor="middle" x="37.7" y="-97.19" font-family="Times,serif" font-size="14.00"> 0</text>
</g>
<!-- 1 -->
<g id="node2" class="node">
<title>1</title>
<ellipse fill="none" stroke="black" cx="149.04" cy="-101.7" rx="26.8" ry="26.8"/>
<text text-anchor="middle" x="149.04" y="-98" font-family="Times,serif" font-size="14.00">S1/0</text>
</g>
<!-- 0&#45;&gt;1 -->
<g id="edge1" class="edge">
<title>0&#45;&gt;1</title>
<path fill="none" stroke="green" d="M70.62,-56.38C85.1,-64.85 102.17,-74.85 116.59,-83.29"/>
<polygon fill="green" stroke="green" points="115.23,-86.55 125.63,-88.58 118.77,-80.51 115.23,-86.55"/>
<text text-anchor="middle" x="98.89" y="-78.5" font-family="Times,serif" font-size="14.00"> 1</text>
</g>
<!-- 1&#45;&gt;1 -->
<g id="edge8" class="edge">
<title>1&#45;&gt;1</title>
<path fill="none" stroke="orange" d="M139.75,-126.94C139.11,-137.44 142.21,-146.34 149.04,-146.34 153.42,-146.34 156.27,-142.69 157.58,-137.3"/>
<polygon fill="orange" stroke="orange" points="161.1,-137.17 158.33,-126.94 154.11,-136.66 161.1,-137.17"/>
<text text-anchor="middle" x="149.04" y="-150.14" font-family="Times,serif" font-size="14.00"> 1</text>
</g>
<!-- 2 -->
<g id="node3" class="node">
<title>2</title>
<ellipse fill="none" stroke="black" cx="249.34" cy="-76.7" rx="26.8" ry="26.8"/>
<text text-anchor="middle" x="249.34" y="-73" font-family="Times,serif" font-size="14.00">S2/0</text>
</g>
<!-- 1&#45;&gt;2 -->
<g id="edge2" class="edge">
<title>1&#45;&gt;2</title>
<path fill="none" stroke="green" d="M175.1,-95.32C186.77,-92.36 200.84,-88.78 213.53,-85.55"/>
<polygon fill="green" stroke="green" points="214.49,-88.92 223.32,-83.06 212.77,-82.13 214.49,-88.92"/>
<text text-anchor="middle" x="199.19" y="-93.5" font-family="Times,serif" font-size="14.00"> 0</text>
</g>
<!-- 2&#45;&gt;1 -->
<g id="edge9" class="edge">
<title>2&#45;&gt;1</title>
<path fill="none" stroke="orange" d="M223.96,-68.35C214.35,-66.28 203.32,-65.46 193.69,-68.7 187.92,-70.63 182.3,-73.67 177.13,-77.13"/>
<polygon fill="orange" stroke="orange" points="174.83,-74.47 168.88,-83.23 179,-80.1 174.83,-74.47"/>
<text text-anchor="middle" x="199.19" y="-72.5" font-family="Times,serif" font-size="14.00"> 1</text>
</g>
<!-- 3 -->
<g id="node4" class="node">
<title>3</title>
<ellipse fill="none" stroke="black" cx="349.63" cy="-66.7" rx="26.8" ry="26.8"/>
<text text-anchor="middle" x="349.63" y="-63" font-family="Times,serif" font-size="14.00">S3/0</text>
</g>
<!-- 2&#45;&gt;3 -->
<g id="edge3" class="edge">
<title>2&#45;&gt;3</title>
<path fill="none" stroke="green" d="M275.91,-74.1C287.08,-72.96 300.39,-71.6 312.54,-70.37"/>
<polygon fill="green" stroke="green" points="313.25,-73.81 322.85,-69.32 312.55,-66.85 313.25,-73.81"/>
<text text-anchor="middle" x="299.48" y="-75.5" font-family="Times,serif" font-size="14.00"> 0</text>
</g>
<!-- 3&#45;&gt;0 -->
<g id="edge7" class="edge">
<title>3&#45;&gt;0</title>
<path fill="none" stroke="red" d="M324.96,-55.98C311.02,-50.24 292.86,-43.74 275.98,-40.7 210.82,-28.96 133.96,-30.78 85.77,-33.76"/>
<polygon fill="red" stroke="red" points="85.39,-30.27 75.64,-34.43 85.85,-37.26 85.39,-30.27"/>
<text text-anchor="middle" x="199.19" y="-36.5" font-family="Times,serif" font-size="14.00"> 0</text>
</g>
<!-- 4 -->
<g id="node5" class="node">
<title>4</title>
<ellipse fill="none" stroke="black" cx="449.93" cy="-123.7" rx="26.8" ry="26.8"/>
<text text-anchor="middle" x="449.93" y="-120" font-family="Times,serif" font-size="14.00">S4/0</text>
</g>
<!-- 3&#45;&gt;4 -->
<g id="edge4" class="edge">
<title>3&#45;&gt;4</title>
<path fill="none" stroke="green" d="M372.94,-79.63C386.16,-87.3 403.13,-97.14 417.68,-105.58"/>
<polygon fill="green" stroke="green" points="415.96,-108.63 426.37,-110.62 419.48,-102.57 415.96,-108.63"/>
<text text-anchor="middle" x="399.78" y="-100.5" font-family="Times,serif" font-size="14.00"> 1</text>
</g>
<!-- 4&#45;&gt;1 -->
<g id="edge10" class="edge">
<title>4&#45;&gt;1</title>
<path fill="none" stroke="orange" d="M423.09,-123.18C381.02,-122.18 295.12,-119.44 222.69,-112.7 210.51,-111.56 197.26,-109.73 185.45,-107.89"/>
<polygon fill="orange" stroke="orange" points="185.94,-104.42 175.5,-106.28 184.82,-111.34 185.94,-104.42"/>
<text text-anchor="middle" x="299.48" y="-121.5" font-family="Times,serif" font-size="14.00"> 1</text>
</g>
<!-- 5 -->
<g id="node6" class="node">
<title>5</title>
<ellipse fill="none" stroke="black" cx="550.22" cy="-123.7" rx="26.8" ry="26.8"/>
<text text-anchor="middle" x="550.22" y="-120" font-family="Times,serif" font-size="14.00">S5/1</text>
</g>
<!-- 4&#45;&gt;5 -->
<g id="edge5" class="edge">
<title>4&#45;&gt;5</title>
<path fill="none" stroke="green" d="M476.75,-123.7C487.93,-123.7 501.2,-123.7 513.31,-123.7"/>
<polygon fill="green" stroke="green" points="513.57,-127.2 523.57,-123.7 513.57,-120.2 513.57,-127.2"/>
<text text-anchor="middle" x="500.07" y="-127.5" font-family="Times,serif" font-size="14.00"> 0</text>
</g>
<!-- 5&#45;&gt;1 -->
<g id="edge11" class="edge">
<title>5&#45;&gt;1</title>
<path fill="none" stroke="blue" d="M530.27,-142.01C511.64,-158.01 481.63,-178.7 450.93,-178.7 248.34,-178.7 248.34,-178.7 248.34,-178.7 216.43,-178.7 188.72,-153.24 170.92,-131.6"/>
<polygon fill="blue" stroke="blue" points="173.53,-129.26 164.6,-123.56 168.03,-133.58 173.53,-129.26"/>
<text text-anchor="middle" x="349.63" y="-182.5" font-family="Times,serif" font-size="14.00"> 1</text>
</g>
<!-- 5&#45;&gt;3 -->
<g id="edge12" class="edge">
<title>5&#45;&gt;3</title>
<path fill="none" stroke="blue" d="M530.27,-105.82C516.52,-94.07 496.84,-79.63 476.57,-72.7 447.45,-62.73 412.32,-61.9 386.57,-63.18"/>
<polygon fill="blue" stroke="blue" points="386.26,-59.69 376.5,-63.81 386.7,-66.68 386.26,-59.69"/>
<text text-anchor="middle" x="449.93" y="-76.5" font-family="Times,serif" font-size="14.00"> 0</text>
</g>
</g>
</svg>
