<?xml version="1.0" encoding="UTF-8" standalone="no"?>
<!DOCTYPE svg PUBLIC "-//W3C//DTD SVG 1.1//EN"
 "http://www.w3.org/Graphics/SVG/1.1/DTD/svg11.dtd">
<!-- Generated by graphviz version 2.43.0 (0)
 -->
<!-- Title: %3 Pages: 1 -->
<svg width="326pt" height="137pt"
 viewBox="0.00 0.00 326.00 136.87" xmlns="http://www.w3.org/2000/svg" xmlns:xlink="http://www.w3.org/1999/xlink">
<g id="graph0" class="graph" transform="scale(1 1) rotate(0) translate(4 132.87)">
<title>%3</title>
<polygon fill="white" stroke="transparent" points="-4,4 -4,-132.87 322,-132.87 322,4 -4,4"/>
<!-- 0 -->
<g id="node1" class="node">
<title>0</title>
<ellipse fill="none" stroke="black" cx="18" cy="-26.87" rx="18" ry="18"/>
<text text-anchor="middle" x="18" y="-23.17" font-family="Times,serif" font-size="14.00">A</text>
</g>
<!-- 0&#45;&gt;0 -->
<g id="edge5" class="edge">
<title>0&#45;&gt;0</title>
<path fill="none" stroke="red" d="M9.98,-43.16C8.05,-53.26 10.72,-62.87 18,-62.87 22.66,-62.87 25.43,-58.92 26.32,-53.43"/>
<polygon fill="red" stroke="red" points="29.81,-53.05 26.02,-43.16 22.81,-53.26 29.81,-53.05"/>
<text text-anchor="middle" x="18" y="-66.67" font-family="Times,serif" font-size="14.00"> 0/0</text>
</g>
<!-- 1 -->
<g id="node2" class="node">
<title>1</title>
<ellipse fill="none" stroke="black" cx="112" cy="-77.87" rx="18" ry="18"/>
<text text-anchor="middle" x="112" y="-74.17" font-family="Times,serif" font-size="14.00">B</text>
</g>
<!-- 0&#45;&gt;1 -->
<g id="edge1" class="edge">
<title>0&#45;&gt;1</title>
<path fill="none" stroke="green" d="M34.19,-35.29C48.44,-43.19 69.99,-55.13 86.64,-64.36"/>
<polygon fill="green" stroke="green" points="85.34,-67.65 95.79,-69.43 88.74,-61.52 85.34,-67.65"/>
<text text-anchor="middle" x="65" y="-61.67" font-family="Times,serif" font-size="14.00"> 1/0</text>
</g>
<!-- 1&#45;&gt;1 -->
<g id="edge7" class="edge">
<title>1&#45;&gt;1</title>
<path fill="none" stroke="orange" d="M103.98,-94.16C102.05,-104.26 104.72,-113.87 112,-113.87 116.66,-113.87 119.43,-109.92 120.32,-104.43"/>
<polygon fill="orange" stroke="orange" points="123.81,-104.05 120.02,-94.16 116.81,-104.26 123.81,-104.05"/>
<text text-anchor="middle" x="112" y="-117.67" font-family="Times,serif" font-size="14.00"> 1/0</text>
</g>
<!-- 2 -->
<g id="node3" class="node">
<title>2</title>
<ellipse fill="none" stroke="black" cx="206" cy="-30.87" rx="18" ry="18"/>
<text text-anchor="middle" x="206" y="-27.17" font-family="Times,serif" font-size="14.00">C</text>
</g>
<!-- 1&#45;&gt;2 -->
<g id="edge2" class="edge">
<title>1&#45;&gt;2</title>
<path fill="none" stroke="green" d="M128.61,-69.89C142.83,-62.63 164.08,-51.77 180.56,-43.35"/>
<polygon fill="green" stroke="green" points="182.31,-46.39 189.62,-38.72 179.13,-40.16 182.31,-46.39"/>
<text text-anchor="middle" x="159" y="-63.67" font-family="Times,serif" font-size="14.00"> 0/0</text>
</g>
<!-- 2&#45;&gt;0 -->
<g id="edge6" class="edge">
<title>2&#45;&gt;0</title>
<path fill="none" stroke="red" d="M187.88,-30.5C155.52,-29.8 85.16,-28.29 46.25,-27.45"/>
<polygon fill="red" stroke="red" points="46.24,-23.95 36.17,-27.24 46.09,-30.95 46.24,-23.95"/>
<text text-anchor="middle" x="112" y="-32.67" font-family="Times,serif" font-size="14.00"> 0/0</text>
</g>
<!-- 3 -->
<g id="node4" class="node">
<title>3</title>
<ellipse fill="none" stroke="black" cx="300" cy="-30.87" rx="18" ry="18"/>
<text text-anchor="middle" x="300" y="-27.17" font-family="Times,serif" font-size="14.00">D</text>
</g>
<!-- 2&#45;&gt;3 -->
<g id="edge3" class="edge">
<title>2&#45;&gt;3</title>
<path fill="none" stroke="green" d="M224.3,-30.87C237.54,-30.87 256.05,-30.87 271.34,-30.87"/>
<polygon fill="green" stroke="green" points="271.77,-34.37 281.77,-30.87 271.77,-27.37 271.77,-34.37"/>
<text text-anchor="middle" x="253" y="-34.67" font-family="Times,serif" font-size="14.00"> 1/0</text>
</g>
<!-- 3&#45;&gt;0 -->
<g id="edge4" class="edge">
<title>3&#45;&gt;0</title>
<path fill="none" stroke="green" d="M283.34,-23.43C268.47,-16.79 245.27,-7.58 224,-3.87 160.17,7.27 84.18,-8.82 45.09,-19.22"/>
<polygon fill="green" stroke="green" points="44.02,-15.88 35.31,-21.91 45.88,-22.63 44.02,-15.88"/>
<text text-anchor="middle" x="159" y="-5.67" font-family="Times,serif" font-size="14.00"> 0/1</text>
</g>
<!-- 3&#45;&gt;1 -->
<g id="edge8" class="edge">
<title>3&#45;&gt;1</title>
<path fill="none" stroke="orange" d="M284.03,-39.97C277.96,-43.4 270.8,-47.12 264,-49.87 223.8,-66.09 212.84,-69.28 170,-75.87 160.33,-77.35 149.63,-77.99 140.14,-78.21"/>
<polygon fill="orange" stroke="orange" points="140.02,-74.71 130.06,-78.31 140.09,-81.71 140.02,-74.71"/>
<text text-anchor="middle" x="206" y="-75.67" font-family="Times,serif" font-size="14.00"> 1/0</text>
</g>
</g>
</svg>
