<?xml version="1.0" encoding="UTF-8" standalone="no"?>
<!DOCTYPE svg PUBLIC "-//W3C//DTD SVG 1.1//EN"
 "http://www.w3.org/Graphics/SVG/1.1/DTD/svg11.dtd">
<!-- Generated by graphviz version 2.43.0 (0)
 -->
<!-- Title: %3 Pages: 1 -->
<svg width="431pt" height="176pt"
 viewBox="0.00 0.00 431.28 176.40" xmlns="http://www.w3.org/2000/svg" xmlns:xlink="http://www.w3.org/1999/xlink">
<g id="graph0" class="graph" transform="scale(1 1) rotate(0) translate(4 172.4)">
<title>%3</title>
<polygon fill="white" stroke="transparent" points="-4,4 -4,-172.4 427.28,-172.4 427.28,4 -4,4"/>
<!-- 0 -->
<g id="node1" class="node">
<title>0</title>
<ellipse fill="none" stroke="black" cx="24.05" cy="-60" rx="24.1" ry="24.1"/>
<text text-anchor="middle" x="24.05" y="-56.3" font-family="Times,serif" font-size="14.00">A/0</text>
</g>
<!-- 0&#45;&gt;0 -->
<g id="edge6" class="edge">
<title>0&#45;&gt;0</title>
<path fill="none" stroke="red" d="M15.56,-82.92C14.75,-93.18 17.58,-102.05 24.05,-102.05 28.19,-102.05 30.84,-98.41 32,-93.1"/>
<polygon fill="red" stroke="red" points="35.5,-93.09 32.54,-82.92 28.51,-92.72 35.5,-93.09"/>
<text text-anchor="middle" x="24.05" y="-105.85" font-family="Times,serif" font-size="14.00"> 0</text>
</g>
<!-- 1 -->
<g id="node2" class="node">
<title>1</title>
<ellipse fill="none" stroke="black" cx="118.49" cy="-60" rx="23.3" ry="23.3"/>
<text text-anchor="middle" x="118.49" y="-56.3" font-family="Times,serif" font-size="14.00">B/0</text>
</g>
<!-- 0&#45;&gt;1 -->
<g id="edge1" class="edge">
<title>0&#45;&gt;1</title>
<path fill="none" stroke="green" d="M48.38,-60C59.38,-60 72.7,-60 84.7,-60"/>
<polygon fill="green" stroke="green" points="84.81,-63.5 94.81,-60 84.81,-56.5 84.81,-63.5"/>
<text text-anchor="middle" x="71.6" y="-63.8" font-family="Times,serif" font-size="14.00"> 1</text>
</g>
<!-- 1&#45;&gt;1 -->
<g id="edge9" class="edge">
<title>1&#45;&gt;1</title>
<path fill="none" stroke="orange" d="M110.04,-82.15C109.12,-92.42 111.94,-101.4 118.49,-101.4 122.7,-101.4 125.36,-97.71 126.49,-92.36"/>
<polygon fill="orange" stroke="orange" points="130,-92.29 126.95,-82.15 123.01,-91.98 130,-92.29"/>
<text text-anchor="middle" x="118.49" y="-105.2" font-family="Times,serif" font-size="14.00"> 1</text>
</g>
<!-- 2 -->
<g id="node3" class="node">
<title>2</title>
<ellipse fill="none" stroke="black" cx="212.29" cy="-145" rx="23.3" ry="23.3"/>
<text text-anchor="middle" x="212.29" y="-141.3" font-family="Times,serif" font-size="14.00">C/0</text>
</g>
<!-- 1&#45;&gt;2 -->
<g id="edge2" class="edge">
<title>1&#45;&gt;2</title>
<path fill="none" stroke="green" d="M135.39,-76.19C142.75,-83.56 151.66,-92.33 159.89,-100 168.31,-107.84 177.73,-116.2 186.18,-123.56"/>
<polygon fill="green" stroke="green" points="184.07,-126.36 193.92,-130.26 188.65,-121.07 184.07,-126.36"/>
<text text-anchor="middle" x="165.39" y="-111.8" font-family="Times,serif" font-size="14.00"> 0</text>
</g>
<!-- 2&#45;&gt;0 -->
<g id="edge7" class="edge">
<title>2&#45;&gt;0</title>
<path fill="none" stroke="red" d="M188.71,-144.87C164.41,-143.9 125.19,-139.88 95.1,-125 76.45,-115.78 59.26,-100 46.58,-86.29"/>
<polygon fill="red" stroke="red" points="48.93,-83.66 39.66,-78.53 43.7,-88.32 48.93,-83.66"/>
<text text-anchor="middle" x="118.49" y="-142.8" font-family="Times,serif" font-size="14.00"> 0</text>
</g>
<!-- 3 -->
<g id="node4" class="node">
<title>3</title>
<ellipse fill="none" stroke="black" cx="306.74" cy="-95" rx="24.1" ry="24.1"/>
<text text-anchor="middle" x="306.74" y="-91.3" font-family="Times,serif" font-size="14.00">D/0</text>
</g>
<!-- 2&#45;&gt;3 -->
<g id="edge3" class="edge">
<title>2&#45;&gt;3</title>
<path fill="none" stroke="green" d="M233.35,-134.15C245.78,-127.43 261.96,-118.67 275.88,-111.15"/>
<polygon fill="green" stroke="green" points="277.94,-114.01 285.07,-106.17 274.61,-107.85 277.94,-114.01"/>
<text text-anchor="middle" x="259.19" y="-125.8" font-family="Times,serif" font-size="14.00"> 1</text>
</g>
<!-- 3&#45;&gt;1 -->
<g id="edge10" class="edge">
<title>3&#45;&gt;1</title>
<path fill="none" stroke="orange" d="M282.79,-90.69C249.81,-84.49 188.85,-73.03 151.47,-66.01"/>
<polygon fill="orange" stroke="orange" points="152.06,-62.56 141.59,-64.15 150.77,-69.44 152.06,-62.56"/>
<text text-anchor="middle" x="212.29" y="-85.8" font-family="Times,serif" font-size="14.00"> 1</text>
</g>
<!-- 4 -->
<g id="node5" class="node">
<title>4</title>
<ellipse fill="none" stroke="black" cx="400.53" cy="-43" rx="23" ry="23"/>
<text text-anchor="middle" x="400.53" y="-39.3" font-family="Times,serif" font-size="14.00">E/1</text>
</g>
<!-- 3&#45;&gt;4 -->
<g id="edge4" class="edge">
<title>3&#45;&gt;4</title>
<path fill="none" stroke="green" d="M328.11,-83.46C340.93,-76.19 357.66,-66.72 371.7,-58.77"/>
<polygon fill="green" stroke="green" points="373.49,-61.77 380.47,-53.8 370.04,-55.68 373.49,-61.77"/>
<text text-anchor="middle" x="354.28" y="-74.8" font-family="Times,serif" font-size="14.00"> 0</text>
</g>
<!-- 4&#45;&gt;0 -->
<g id="edge8" class="edge">
<title>4&#45;&gt;0</title>
<path fill="none" stroke="red" d="M382.03,-29.16C364.35,-16.59 335.72,0 307.74,0 117.49,0 117.49,0 117.49,0 90.45,0 65.08,-18.29 47.79,-34.68"/>
<polygon fill="red" stroke="red" points="45.05,-32.46 40.44,-42 49.99,-37.42 45.05,-32.46"/>
<text text-anchor="middle" x="212.29" y="-3.8" font-family="Times,serif" font-size="14.00"> 0</text>
</g>
<!-- 4&#45;&gt;1 -->
<g id="edge5" class="edge">
<title>4&#45;&gt;1</title>
<path fill="none" stroke="green" d="M377.76,-44.32C328.78,-47.3 209.72,-54.52 151.98,-58.03"/>
<polygon fill="green" stroke="green" points="151.71,-54.54 141.94,-58.64 152.13,-61.53 151.71,-54.54"/>
<text text-anchor="middle" x="259.19" y="-55.8" font-family="Times,serif" font-size="14.00"> 1</text>
</g>
</g>
</svg>
