<?xml version="1.0" encoding="UTF-8" standalone="no"?>
<!DOCTYPE svg PUBLIC "-//W3C//DTD SVG 1.1//EN"
 "http://www.w3.org/Graphics/SVG/1.1/DTD/svg11.dtd">
<!-- Generated by graphviz version 2.43.0 (0)
 -->
<!-- Title: %3 Pages: 1 -->
<svg width="431pt" height="167pt"
 viewBox="0.00 0.00 431.28 167.40" xmlns="http://www.w3.org/2000/svg" xmlns:xlink="http://www.w3.org/1999/xlink">
<g id="graph0" class="graph" transform="scale(1 1) rotate(0) translate(4 163.4)">
<title>%3</title>
<polygon fill="white" stroke="transparent" points="-4,4 -4,-163.4 427.28,-163.4 427.28,4 -4,4"/>
<!-- 0 -->
<g id="node1" class="node">
<title>0</title>
<ellipse fill="none" stroke="black" cx="24.05" cy="-47" rx="24.1" ry="24.1"/>
<text text-anchor="middle" x="24.05" y="-43.3" font-family="Times,serif" font-size="14.00">A/0</text>
</g>
<!-- 0&#45;&gt;0 -->
<g id="edge5" class="edge">
<title>0&#45;&gt;0</title>
<path fill="none" stroke="red" d="M15.56,-69.92C14.75,-80.18 17.58,-89.05 24.05,-89.05 28.19,-89.05 30.84,-85.41 32,-80.1"/>
<polygon fill="red" stroke="red" points="35.5,-80.09 32.54,-69.92 28.51,-79.72 35.5,-80.09"/>
<text text-anchor="middle" x="24.05" y="-92.85" font-family="Times,serif" font-size="14.00"> 0</text>
</g>
<!-- 1 -->
<g id="node2" class="node">
<title>1</title>
<ellipse fill="none" stroke="black" cx="118.49" cy="-103" rx="23.3" ry="23.3"/>
<text text-anchor="middle" x="118.49" y="-99.3" font-family="Times,serif" font-size="14.00">B/0</text>
</g>
<!-- 0&#45;&gt;1 -->
<g id="edge1" class="edge">
<title>0&#45;&gt;1</title>
<path fill="none" stroke="green" d="M45.11,-59.15C58,-66.96 74.95,-77.23 89.2,-85.86"/>
<polygon fill="green" stroke="green" points="87.74,-89.07 98.11,-91.26 91.37,-83.08 87.74,-89.07"/>
<text text-anchor="middle" x="71.6" y="-81.8" font-family="Times,serif" font-size="14.00"> 1</text>
</g>
<!-- 1&#45;&gt;1 -->
<g id="edge8" class="edge">
<title>1&#45;&gt;1</title>
<path fill="none" stroke="orange" d="M110.04,-125.15C109.12,-135.42 111.94,-144.4 118.49,-144.4 122.7,-144.4 125.36,-140.71 126.49,-135.36"/>
<polygon fill="orange" stroke="orange" points="130,-135.29 126.95,-125.15 123.01,-134.98 130,-135.29"/>
<text text-anchor="middle" x="118.49" y="-148.2" font-family="Times,serif" font-size="14.00"> 1</text>
</g>
<!-- 2 -->
<g id="node3" class="node">
<title>2</title>
<ellipse fill="none" stroke="black" cx="212.29" cy="-56" rx="23.3" ry="23.3"/>
<text text-anchor="middle" x="212.29" y="-52.3" font-family="Times,serif" font-size="14.00">C/0</text>
</g>
<!-- 1&#45;&gt;2 -->
<g id="edge2" class="edge">
<title>1&#45;&gt;2</title>
<path fill="none" stroke="green" d="M139.87,-92.57C152.23,-86.24 168.21,-78.06 181.92,-71.04"/>
<polygon fill="green" stroke="green" points="183.67,-74.07 190.97,-66.4 180.48,-67.84 183.67,-74.07"/>
<text text-anchor="middle" x="165.39" y="-85.8" font-family="Times,serif" font-size="14.00"> 0</text>
</g>
<!-- 2&#45;&gt;0 -->
<g id="edge6" class="edge">
<title>2&#45;&gt;0</title>
<path fill="none" stroke="red" d="M188.66,-54.91C156.24,-53.34 96.33,-50.44 58.7,-48.63"/>
<polygon fill="red" stroke="red" points="58.42,-45.11 48.26,-48.12 58.08,-52.1 58.42,-45.11"/>
<text text-anchor="middle" x="118.49" y="-55.8" font-family="Times,serif" font-size="14.00"> 0</text>
</g>
<!-- 3 -->
<g id="node4" class="node">
<title>3</title>
<ellipse fill="none" stroke="black" cx="306.74" cy="-67" rx="24.1" ry="24.1"/>
<text text-anchor="middle" x="306.74" y="-63.3" font-family="Times,serif" font-size="14.00">D/0</text>
</g>
<!-- 2&#45;&gt;3 -->
<g id="edge3" class="edge">
<title>2&#45;&gt;3</title>
<path fill="none" stroke="green" d="M235.67,-58.66C246.66,-59.97 260.13,-61.57 272.32,-63.02"/>
<polygon fill="green" stroke="green" points="272.25,-66.54 282.6,-64.25 273.08,-59.59 272.25,-66.54"/>
<text text-anchor="middle" x="259.19" y="-64.8" font-family="Times,serif" font-size="14.00"> 1</text>
</g>
<!-- 3&#45;&gt;1 -->
<g id="edge9" class="edge">
<title>3&#45;&gt;1</title>
<path fill="none" stroke="orange" d="M283.63,-74.17C277.51,-76.11 270.85,-78.17 264.69,-80 223.73,-92.13 213.31,-95.95 170.89,-101 164.87,-101.72 158.43,-102.19 152.21,-102.51"/>
<polygon fill="orange" stroke="orange" points="151.93,-99.02 142.07,-102.9 152.2,-106.01 151.93,-99.02"/>
<text text-anchor="middle" x="212.29" y="-101.8" font-family="Times,serif" font-size="14.00"> 1</text>
</g>
<!-- 4 -->
<g id="node5" class="node">
<title>4</title>
<ellipse fill="none" stroke="black" cx="400.53" cy="-33" rx="23" ry="23"/>
<text text-anchor="middle" x="400.53" y="-29.3" font-family="Times,serif" font-size="14.00">E/1</text>
</g>
<!-- 3&#45;&gt;4 -->
<g id="edge4" class="edge">
<title>3&#45;&gt;4</title>
<path fill="none" stroke="green" d="M324.12,-49.7C331.07,-43.54 339.67,-37.31 348.78,-34 354.62,-31.88 361.09,-30.85 367.4,-30.47"/>
<polygon fill="green" stroke="green" points="367.76,-33.97 377.73,-30.38 367.7,-26.97 367.76,-33.97"/>
<text text-anchor="middle" x="354.28" y="-37.8" font-family="Times,serif" font-size="14.00"> 0</text>
</g>
<!-- 4&#45;&gt;0 -->
<g id="edge7" class="edge">
<title>4&#45;&gt;0</title>
<path fill="none" stroke="red" d="M380.55,-21.83C362.46,-12.25 334.15,0 307.74,0 117.49,0 117.49,0 117.49,0 93.05,0 68.53,-13.22 50.89,-25.64"/>
<polygon fill="red" stroke="red" points="48.77,-22.85 42.81,-31.61 52.93,-28.48 48.77,-22.85"/>
<text text-anchor="middle" x="212.29" y="-3.8" font-family="Times,serif" font-size="14.00"> 0</text>
</g>
<!-- 4&#45;&gt;3 -->
<g id="edge10" class="edge">
<title>4&#45;&gt;3</title>
<path fill="none" stroke="blue" d="M378.98,-41.5C372.83,-43.98 366.05,-46.66 359.78,-49 353.22,-51.45 346.16,-53.97 339.41,-56.33"/>
<polygon fill="blue" stroke="blue" points="338.17,-53.05 329.86,-59.62 340.45,-59.67 338.17,-53.05"/>
<text text-anchor="middle" x="354.28" y="-55.8" font-family="Times,serif" font-size="14.00"> 1</text>
</g>
</g>
</svg>
