<?xml version="1.0" encoding="UTF-8" standalone="no"?>
<!DOCTYPE svg PUBLIC "-//W3C//DTD SVG 1.1//EN"
 "http://www.w3.org/Graphics/SVG/1.1/DTD/svg11.dtd">
<!-- Generated by graphviz version 2.43.0 (0)
 -->
<!-- Title: %3 Pages: 1 -->
<svg width="326pt" height="124pt"
 viewBox="0.00 0.00 326.00 124.00" xmlns="http://www.w3.org/2000/svg" xmlns:xlink="http://www.w3.org/1999/xlink">
<g id="graph0" class="graph" transform="scale(1 1) rotate(0) translate(4 120)">
<title>%3</title>
<polygon fill="white" stroke="transparent" points="-4,4 -4,-120 322,-120 322,4 -4,4"/>
<!-- 0 -->
<g id="node1" class="node">
<title>0</title>
<ellipse fill="none" stroke="black" cx="18" cy="-30" rx="18" ry="18"/>
<text text-anchor="middle" x="18" y="-26.3" font-family="Times,serif" font-size="14.00">A</text>
</g>
<!-- 0&#45;&gt;0 -->
<g id="edge4" class="edge">
<title>0&#45;&gt;0</title>
<path fill="none" stroke="red" d="M9.98,-46.29C8.05,-56.39 10.72,-66 18,-66 22.66,-66 25.43,-62.06 26.32,-56.57"/>
<polygon fill="red" stroke="red" points="29.81,-56.18 26.02,-46.29 22.81,-56.39 29.81,-56.18"/>
<text text-anchor="middle" x="18" y="-69.8" font-family="Times,serif" font-size="14.00"> 0/0</text>
</g>
<!-- 1 -->
<g id="node2" class="node">
<title>1</title>
<ellipse fill="none" stroke="black" cx="112" cy="-65" rx="18" ry="18"/>
<text text-anchor="middle" x="112" y="-61.3" font-family="Times,serif" font-size="14.00">B</text>
</g>
<!-- 0&#45;&gt;1 -->
<g id="edge1" class="edge">
<title>0&#45;&gt;1</title>
<path fill="none" stroke="green" d="M35.03,-36.1C48.92,-41.38 69.29,-49.13 85.44,-55.27"/>
<polygon fill="green" stroke="green" points="84.26,-58.57 94.85,-58.86 86.75,-52.03 84.26,-58.57"/>
<text text-anchor="middle" x="65" y="-54.8" font-family="Times,serif" font-size="14.00"> 1/0</text>
</g>
<!-- 1&#45;&gt;1 -->
<g id="edge6" class="edge">
<title>1&#45;&gt;1</title>
<path fill="none" stroke="orange" d="M103.98,-81.29C102.05,-91.39 104.72,-101 112,-101 116.66,-101 119.43,-97.06 120.32,-91.57"/>
<polygon fill="orange" stroke="orange" points="123.81,-91.18 120.02,-81.29 116.81,-91.39 123.81,-91.18"/>
<text text-anchor="middle" x="112" y="-104.8" font-family="Times,serif" font-size="14.00"> 1/0</text>
</g>
<!-- 2 -->
<g id="node3" class="node">
<title>2</title>
<ellipse fill="none" stroke="black" cx="206" cy="-18" rx="18" ry="18"/>
<text text-anchor="middle" x="206" y="-14.3" font-family="Times,serif" font-size="14.00">C</text>
</g>
<!-- 1&#45;&gt;2 -->
<g id="edge2" class="edge">
<title>1&#45;&gt;2</title>
<path fill="none" stroke="green" d="M128.61,-57.03C142.83,-49.76 164.08,-38.9 180.56,-30.48"/>
<polygon fill="green" stroke="green" points="182.31,-33.52 189.62,-25.86 179.13,-27.29 182.31,-33.52"/>
<text text-anchor="middle" x="159" y="-50.8" font-family="Times,serif" font-size="14.00"> 0/0</text>
</g>
<!-- 2&#45;&gt;0 -->
<g id="edge5" class="edge">
<title>2&#45;&gt;0</title>
<path fill="none" stroke="red" d="M187.68,-18.52C165.83,-19.24 127.1,-20.71 94,-23 78.09,-24.1 60.33,-25.74 46.08,-27.16"/>
<polygon fill="red" stroke="red" points="45.56,-23.69 35.96,-28.18 46.26,-30.66 45.56,-23.69"/>
<text text-anchor="middle" x="112" y="-26.8" font-family="Times,serif" font-size="14.00"> 0/0</text>
</g>
<!-- 3 -->
<g id="node4" class="node">
<title>3</title>
<ellipse fill="none" stroke="black" cx="300" cy="-47" rx="18" ry="18"/>
<text text-anchor="middle" x="300" y="-43.3" font-family="Times,serif" font-size="14.00">D</text>
</g>
<!-- 2&#45;&gt;3 -->
<g id="edge3" class="edge">
<title>2&#45;&gt;3</title>
<path fill="none" stroke="green" d="M223.45,-23.18C237.18,-27.51 257.02,-33.77 272.92,-38.78"/>
<polygon fill="green" stroke="green" points="272.1,-42.19 282.69,-41.86 274.21,-35.52 272.1,-42.19"/>
<text text-anchor="middle" x="253" y="-38.8" font-family="Times,serif" font-size="14.00"> 1/0</text>
</g>
<!-- 3&#45;&gt;1 -->
<g id="edge7" class="edge">
<title>3&#45;&gt;1</title>
<path fill="none" stroke="orange" d="M282.33,-50.7C276.54,-51.88 270.01,-53.11 264,-54 222.48,-60.12 211.88,-60.26 170,-63 160.31,-63.63 149.68,-64.08 140.25,-64.38"/>
<polygon fill="orange" stroke="orange" points="140.12,-60.88 130.22,-64.67 140.32,-67.88 140.12,-60.88"/>
<text text-anchor="middle" x="206" y="-64.8" font-family="Times,serif" font-size="14.00"> 1/0</text>
</g>
<!-- 3&#45;&gt;2 -->
<g id="edge8" class="edge">
<title>3&#45;&gt;2</title>
<path fill="none" stroke="blue" d="M289.58,-32.24C283.42,-24.02 274.56,-14.55 264,-10 254.33,-5.84 242.96,-6.46 232.93,-8.63"/>
<polygon fill="blue" stroke="blue" points="231.81,-5.3 223.09,-11.32 233.66,-12.06 231.81,-5.3"/>
<text text-anchor="middle" x="253" y="-13.8" font-family="Times,serif" font-size="14.00"> 0/1</text>
</g>
</g>
</svg>
