<?xml version="1.0" encoding="UTF-8" standalone="no"?>
<!DOCTYPE svg PUBLIC "-//W3C//DTD SVG 1.1//EN"
 "http://www.w3.org/Graphics/SVG/1.1/DTD/svg11.dtd">
<!-- Generated by graphviz version 2.43.0 (0)
 -->
<!-- Title: %3 Pages: 1 -->
<svg width="485pt" height="163pt"
 viewBox="0.00 0.00 484.57 162.52" xmlns="http://www.w3.org/2000/svg" xmlns:xlink="http://www.w3.org/1999/xlink">
<g id="graph0" class="graph" transform="scale(1 1) rotate(0) translate(4 158.52)">
<title>%3</title>
<polygon fill="white" stroke="transparent" points="-4,4 -4,-158.52 480.57,-158.52 480.57,4 -4,4"/>
<!-- 0 -->
<g id="node1" class="node">
<title>0</title>
<ellipse fill="none" stroke="black" cx="37.7" cy="-50.87" rx="37.89" ry="37.89"/>
<text text-anchor="middle" x="37.7" y="-47.17" font-family="Times,serif" font-size="14.00">IDLE/0</text>
</g>
<!-- 0&#45;&gt;0 -->
<g id="edge5" class="edge">
<title>0&#45;&gt;0</title>
<path fill="none" stroke="red" d="M26.46,-87.03C26.75,-98 30.49,-106.57 37.7,-106.57 42.43,-106.57 45.66,-102.88 47.41,-97.24"/>
<polygon fill="red" stroke="red" points="50.92,-97.44 48.93,-87.03 44,-96.41 50.92,-97.44"/>
<text text-anchor="middle" x="37.7" y="-110.37" font-family="Times,serif" font-size="14.00"> 0</text>
</g>
<!-- 1 -->
<g id="node2" class="node">
<title>1</title>
<ellipse fill="none" stroke="black" cx="149.04" cy="-94.87" rx="26.8" ry="26.8"/>
<text text-anchor="middle" x="149.04" y="-91.17" font-family="Times,serif" font-size="14.00">S1/0</text>
</g>
<!-- 0&#45;&gt;1 -->
<g id="edge1" class="edge">
<title>0&#45;&gt;1</title>
<path fill="none" stroke="green" d="M72.99,-64.67C86.17,-69.98 101.19,-76.02 114.31,-81.3"/>
<polygon fill="green" stroke="green" points="113.33,-84.68 123.91,-85.16 115.94,-78.18 113.33,-84.68"/>
<text text-anchor="middle" x="98.89" y="-79.67" font-family="Times,serif" font-size="14.00"> 1</text>
</g>
<!-- 1&#45;&gt;1 -->
<g id="edge7" class="edge">
<title>1&#45;&gt;1</title>
<path fill="none" stroke="orange" d="M139.75,-120.12C139.11,-130.62 142.21,-139.52 149.04,-139.52 153.42,-139.52 156.27,-135.87 157.58,-130.48"/>
<polygon fill="orange" stroke="orange" points="161.1,-130.35 158.33,-120.12 154.11,-129.83 161.1,-130.35"/>
<text text-anchor="middle" x="149.04" y="-143.32" font-family="Times,serif" font-size="14.00"> 1</text>
</g>
<!-- 2 -->
<g id="node3" class="node">
<title>2</title>
<ellipse fill="none" stroke="black" cx="249.34" cy="-34.87" rx="26.8" ry="26.8"/>
<text text-anchor="middle" x="249.34" y="-31.17" font-family="Times,serif" font-size="14.00">S2/0</text>
</g>
<!-- 1&#45;&gt;2 -->
<g id="edge2" class="edge">
<title>1&#45;&gt;2</title>
<path fill="none" stroke="green" d="M172.35,-81.26C185.67,-73.13 202.78,-62.68 217.4,-53.76"/>
<polygon fill="green" stroke="green" points="219.41,-56.63 226.12,-48.43 215.76,-50.66 219.41,-56.63"/>
<text text-anchor="middle" x="199.19" y="-70.67" font-family="Times,serif" font-size="14.00"> 0</text>
</g>
<!-- 2&#45;&gt;0 -->
<g id="edge6" class="edge">
<title>2&#45;&gt;0</title>
<path fill="none" stroke="red" d="M222.28,-36.64C196.81,-38.39 156.92,-41.19 122.39,-43.87 110.47,-44.8 97.61,-45.85 85.62,-46.85"/>
<polygon fill="red" stroke="red" points="85.03,-43.38 75.36,-47.71 85.61,-50.36 85.03,-43.38"/>
<text text-anchor="middle" x="149.04" y="-47.67" font-family="Times,serif" font-size="14.00"> 0</text>
</g>
<!-- 3 -->
<g id="node4" class="node">
<title>3</title>
<ellipse fill="none" stroke="black" cx="349.63" cy="-54.87" rx="26.8" ry="26.8"/>
<text text-anchor="middle" x="349.63" y="-51.17" font-family="Times,serif" font-size="14.00">S3/0</text>
</g>
<!-- 2&#45;&gt;3 -->
<g id="edge3" class="edge">
<title>2&#45;&gt;3</title>
<path fill="none" stroke="green" d="M275.14,-42.26C281.26,-43.93 287.83,-45.58 293.98,-46.87 300,-48.13 306.42,-49.27 312.68,-50.25"/>
<polygon fill="green" stroke="green" points="312.53,-53.77 322.94,-51.77 313.56,-46.84 312.53,-53.77"/>
<text text-anchor="middle" x="299.48" y="-52.67" font-family="Times,serif" font-size="14.00"> 1</text>
</g>
<!-- 3&#45;&gt;2 -->
<g id="edge9" class="edge">
<title>3&#45;&gt;2</title>
<path fill="none" stroke="blue" d="M328,-38.87C321.07,-34.41 313.04,-30.16 304.98,-27.87 298.7,-26.09 291.89,-25.75 285.27,-26.22"/>
<polygon fill="blue" stroke="blue" points="284.61,-22.78 275.14,-27.52 285.5,-29.72 284.61,-22.78"/>
<text text-anchor="middle" x="299.48" y="-31.67" font-family="Times,serif" font-size="14.00"> 0</text>
</g>
<!-- 4 -->
<g id="node5" class="node">
<title>4</title>
<ellipse fill="none" stroke="black" cx="449.93" cy="-54.87" rx="26.8" ry="26.8"/>
<text text-anchor="middle" x="449.93" y="-51.17" font-family="Times,serif" font-size="14.00">S4/1</text>
</g>
<!-- 3&#45;&gt;4 -->
<g id="edge4" class="edge">
<title>3&#45;&gt;4</title>
<path fill="none" stroke="green" d="M376.46,-54.87C387.63,-54.87 400.9,-54.87 413.01,-54.87"/>
<polygon fill="green" stroke="green" points="413.27,-58.37 423.27,-54.87 413.27,-51.37 413.27,-58.37"/>
<text text-anchor="middle" x="399.78" y="-58.67" font-family="Times,serif" font-size="14.00"> 1</text>
</g>
<!-- 4&#45;&gt;1 -->
<g id="edge8" class="edge">
<title>4&#45;&gt;1</title>
<path fill="none" stroke="orange" d="M427.01,-68.93C413.08,-77.04 394.33,-86.48 376.28,-90.87 310.56,-106.88 230.89,-103.16 185.77,-99.01"/>
<polygon fill="orange" stroke="orange" points="185.91,-95.51 175.61,-98.02 185.22,-102.48 185.91,-95.51"/>
<text text-anchor="middle" x="299.48" y="-104.67" font-family="Times,serif" font-size="14.00"> 1</text>
</g>
<!-- 4&#45;&gt;2 -->
<g id="edge10" class="edge">
<title>4&#45;&gt;2</title>
<path fill="none" stroke="blue" d="M430.07,-36.7C416.37,-24.81 396.7,-10.33 376.28,-3.87 344.67,6.11 307.78,-5.63 282.12,-17.42"/>
<polygon fill="blue" stroke="blue" points="280.35,-14.39 272.87,-21.9 283.4,-20.69 280.35,-14.39"/>
<text text-anchor="middle" x="349.63" y="-7.67" font-family="Times,serif" font-size="14.00"> 0</text>
</g>
</g>
</svg>
