<?xml version="1.0" encoding="UTF-8" standalone="no"?>
<!DOCTYPE svg PUBLIC "-//W3C//DTD SVG 1.1//EN"
 "http://www.w3.org/Graphics/SVG/1.1/DTD/svg11.dtd">
<!-- Generated by graphviz version 2.43.0 (0)
 -->
<!-- Title: %3 Pages: 1 -->
<svg width="245pt" height="81pt"
 viewBox="0.00 0.00 244.89 81.30" xmlns="http://www.w3.org/2000/svg" xmlns:xlink="http://www.w3.org/1999/xlink">
<g id="graph0" class="graph" transform="scale(1 1) rotate(0) translate(4 77.3)">
<title>%3</title>
<polygon fill="white" stroke="transparent" points="-4,4 -4,-77.3 240.89,-77.3 240.89,4 -4,4"/>
<!-- 0 -->
<g id="node1" class="node">
<title>0</title>
<ellipse fill="none" stroke="black" cx="20.15" cy="-20.15" rx="20.3" ry="20.3"/>
<text text-anchor="middle" x="20.15" y="-16.45" font-family="Times,serif" font-size="14.00">S0</text>
</g>
<!-- 0&#45;&gt;0 -->
<g id="edge4" class="edge">
<title>0&#45;&gt;0</title>
<path fill="none" stroke="red" d="M11.58,-38.6C9.98,-48.85 12.84,-58.3 20.15,-58.3 24.83,-58.3 27.69,-54.42 28.72,-48.94"/>
<polygon fill="red" stroke="red" points="32.22,-48.6 28.72,-38.6 25.22,-48.6 32.22,-48.6"/>
<text text-anchor="middle" x="20.15" y="-62.1" font-family="Times,serif" font-size="14.00"> 0/0</text>
</g>
<!-- 1 -->
<g id="node2" class="node">
<title>1</title>
<ellipse fill="none" stroke="black" cx="118.44" cy="-49.15" rx="20.3" ry="20.3"/>
<text text-anchor="middle" x="118.44" y="-45.45" font-family="Times,serif" font-size="14.00">S1</text>
</g>
<!-- 0&#45;&gt;1 -->
<g id="edge1" class="edge">
<title>0&#45;&gt;1</title>
<path fill="none" stroke="green" d="M38.65,-28.5C44.77,-31.2 51.75,-34.04 58.3,-36.15 67.92,-39.25 78.67,-41.85 88.33,-43.9"/>
<polygon fill="green" stroke="green" points="87.79,-47.36 98.29,-45.9 89.17,-40.5 87.79,-47.36"/>
<text text-anchor="middle" x="69.3" y="-44.95" font-family="Times,serif" font-size="14.00"> 1/0</text>
</g>
<!-- 1&#45;&gt;0 -->
<g id="edge5" class="edge">
<title>1&#45;&gt;0</title>
<path fill="none" stroke="red" d="M104.57,-33.99C98.05,-27.48 89.55,-20.59 80.3,-17.15 70.81,-13.63 59.88,-13.26 50.01,-14.13"/>
<polygon fill="red" stroke="red" points="49.3,-10.7 39.84,-15.49 50.22,-17.64 49.3,-10.7"/>
<text text-anchor="middle" x="69.3" y="-20.95" font-family="Times,serif" font-size="14.00"> 1/0</text>
</g>
<!-- 2 -->
<g id="node3" class="node">
<title>2</title>
<ellipse fill="none" stroke="black" cx="216.74" cy="-20.15" rx="20.3" ry="20.3"/>
<text text-anchor="middle" x="216.74" y="-16.45" font-family="Times,serif" font-size="14.00">S2</text>
</g>
<!-- 1&#45;&gt;2 -->
<g id="edge2" class="edge">
<title>1&#45;&gt;2</title>
<path fill="none" stroke="green" d="M138.6,-45.9C150.3,-43.67 165.48,-40.37 178.59,-36.15 181.97,-35.06 185.46,-33.78 188.89,-32.42"/>
<polygon fill="green" stroke="green" points="190.38,-35.6 198.24,-28.5 187.67,-29.14 190.38,-35.6"/>
<text text-anchor="middle" x="167.59" y="-44.95" font-family="Times,serif" font-size="14.00"> 0/0</text>
</g>
<!-- 2&#45;&gt;0 -->
<g id="edge6" class="edge">
<title>2&#45;&gt;0</title>
<path fill="none" stroke="red" d="M197.39,-13.97C191.45,-12.17 184.8,-10.37 178.59,-9.15 126.13,1.15 110.76,1.15 58.3,-9.15 55.39,-9.72 52.38,-10.42 49.39,-11.19"/>
<polygon fill="red" stroke="red" points="48.17,-7.89 39.5,-13.97 50.07,-14.63 48.17,-7.89"/>
<text text-anchor="middle" x="118.44" y="-5.95" font-family="Times,serif" font-size="14.00"> 0/0</text>
</g>
<!-- 2&#45;&gt;1 -->
<g id="edge3" class="edge">
<title>2&#45;&gt;1</title>
<path fill="none" stroke="green" d="M197.05,-15.49C185.11,-13.4 169.51,-12.35 156.59,-17.15 150.66,-19.35 145.05,-22.97 140.06,-27"/>
<polygon fill="green" stroke="green" points="137.39,-24.69 132.32,-33.99 142.09,-29.88 137.39,-24.69"/>
<text text-anchor="middle" x="167.59" y="-20.95" font-family="Times,serif" font-size="14.00"> 1/1</text>
</g>
</g>
</svg>
