<?xml version="1.0" encoding="UTF-8" standalone="no"?>
<!DOCTYPE svg PUBLIC "-//W3C//DTD SVG 1.1//EN"
 "http://www.w3.org/Graphics/SVG/1.1/DTD/svg11.dtd">
<!-- Generated by graphviz version 2.43.0 (0)
 -->
<!-- Title: %3 Pages: 1 -->
<svg width="362pt" height="133pt"
 viewBox="0.00 0.00 362.18 132.77" xmlns="http://www.w3.org/2000/svg" xmlns:xlink="http://www.w3.org/1999/xlink">
<g id="graph0" class="graph" transform="scale(1 1) rotate(0) translate(4 128.77)">
<title>%3</title>
<polygon fill="white" stroke="transparent" points="-4,4 -4,-128.77 358.18,-128.77 358.18,4 -4,4"/>
<!-- 0 -->
<g id="node1" class="node">
<title>0</title>
<ellipse fill="none" stroke="black" cx="26.65" cy="-48.12" rx="26.8" ry="26.8"/>
<text text-anchor="middle" x="26.65" y="-44.42" font-family="Times,serif" font-size="14.00">S0/0</text>
</g>
<!-- 0&#45;&gt;0 -->
<g id="edge5" class="edge">
<title>0&#45;&gt;0</title>
<path fill="none" stroke="red" d="M17.36,-73.37C16.71,-83.87 19.81,-92.77 26.65,-92.77 31.03,-92.77 33.87,-89.12 35.18,-83.73"/>
<polygon fill="red" stroke="red" points="38.7,-83.6 35.94,-73.37 31.72,-83.09 38.7,-83.6"/>
<text text-anchor="middle" x="26.65" y="-96.57" font-family="Times,serif" font-size="14.00"> 0</text>
</g>
<!-- 1 -->
<g id="node2" class="node">
<title>1</title>
<ellipse fill="none" stroke="black" cx="126.94" cy="-98.12" rx="26.8" ry="26.8"/>
<text text-anchor="middle" x="126.94" y="-94.42" font-family="Times,serif" font-size="14.00">S1/0</text>
</g>
<!-- 0&#45;&gt;1 -->
<g id="edge1" class="edge">
<title>0&#45;&gt;1</title>
<path fill="none" stroke="green" d="M47.54,-65.46C54.68,-71.04 63.01,-76.87 71.3,-81.12 77.47,-84.29 84.35,-87 91.08,-89.26"/>
<polygon fill="green" stroke="green" points="90.16,-92.64 100.75,-92.25 92.23,-85.95 90.16,-92.64"/>
<text text-anchor="middle" x="76.8" y="-88.92" font-family="Times,serif" font-size="14.00"> 1</text>
</g>
<!-- 1&#45;&gt;0 -->
<g id="edge6" class="edge">
<title>1&#45;&gt;0</title>
<path fill="none" stroke="red" d="M107.26,-79.64C99.97,-73.3 91.23,-66.66 82.3,-62.12 76.39,-59.12 69.8,-56.73 63.29,-54.84"/>
<polygon fill="red" stroke="red" points="63.8,-51.35 53.24,-52.25 62.05,-58.13 63.8,-51.35"/>
<text text-anchor="middle" x="76.8" y="-65.92" font-family="Times,serif" font-size="14.00"> 1</text>
</g>
<!-- 2 -->
<g id="node3" class="node">
<title>2</title>
<ellipse fill="none" stroke="black" cx="227.24" cy="-41.12" rx="26.8" ry="26.8"/>
<text text-anchor="middle" x="227.24" y="-37.42" font-family="Times,serif" font-size="14.00">S2/0</text>
</g>
<!-- 1&#45;&gt;2 -->
<g id="edge2" class="edge">
<title>1&#45;&gt;2</title>
<path fill="none" stroke="green" d="M150.25,-85.19C163.48,-77.52 180.45,-67.68 194.99,-59.24"/>
<polygon fill="green" stroke="green" points="196.79,-62.25 203.68,-54.2 193.27,-56.19 196.79,-62.25"/>
<text text-anchor="middle" x="177.09" y="-74.92" font-family="Times,serif" font-size="14.00"> 0</text>
</g>
<!-- 2&#45;&gt;0 -->
<g id="edge7" class="edge">
<title>2&#45;&gt;0</title>
<path fill="none" stroke="red" d="M200.58,-42.03C165.71,-43.26 103.17,-45.46 63.63,-46.85"/>
<polygon fill="red" stroke="red" points="63.48,-43.36 53.61,-47.21 63.73,-50.35 63.48,-43.36"/>
<text text-anchor="middle" x="126.94" y="-48.92" font-family="Times,serif" font-size="14.00"> 0</text>
</g>
<!-- 3 -->
<g id="node4" class="node">
<title>3</title>
<ellipse fill="none" stroke="black" cx="327.53" cy="-41.12" rx="26.8" ry="26.8"/>
<text text-anchor="middle" x="327.53" y="-37.42" font-family="Times,serif" font-size="14.00">S3/1</text>
</g>
<!-- 2&#45;&gt;3 -->
<g id="edge3" class="edge">
<title>2&#45;&gt;3</title>
<path fill="none" stroke="green" d="M254.06,-41.12C265.24,-41.12 278.51,-41.12 290.62,-41.12"/>
<polygon fill="green" stroke="green" points="290.88,-44.62 300.88,-41.12 290.88,-37.62 290.88,-44.62"/>
<text text-anchor="middle" x="277.39" y="-44.92" font-family="Times,serif" font-size="14.00"> 1</text>
</g>
<!-- 3&#45;&gt;0 -->
<g id="edge8" class="edge">
<title>3&#45;&gt;0</title>
<path fill="none" stroke="red" d="M304.65,-26.95C290.73,-18.8 271.98,-9.36 253.89,-5.12 185.67,10.85 104.83,-15.19 60.62,-33.22"/>
<polygon fill="red" stroke="red" points="59.11,-30.06 51.23,-37.15 61.81,-36.51 59.11,-30.06"/>
<text text-anchor="middle" x="177.09" y="-6.92" font-family="Times,serif" font-size="14.00"> 0</text>
</g>
<!-- 3&#45;&gt;1 -->
<g id="edge4" class="edge">
<title>3&#45;&gt;1</title>
<path fill="none" stroke="green" d="M304.01,-54.34C290,-62.03 271.39,-71.32 253.89,-77.12 223.31,-87.26 214.37,-84.9 182.59,-90.12 176.53,-91.12 170.08,-92.12 163.81,-93.05"/>
<polygon fill="green" stroke="green" points="162.93,-89.65 153.55,-94.56 163.95,-96.57 162.93,-89.65"/>
<text text-anchor="middle" x="227.24" y="-90.92" font-family="Times,serif" font-size="14.00"> 1</text>
</g>
</g>
</svg>
