<?xml version="1.0" encoding="UTF-8" standalone="no"?>
<!DOCTYPE svg PUBLIC "-//W3C//DTD SVG 1.1//EN"
 "http://www.w3.org/Graphics/SVG/1.1/DTD/svg11.dtd">
<!-- Generated by graphviz version 2.43.0 (0)
 -->
<!-- Title: %3 Pages: 1 -->
<svg width="462pt" height="183pt"
 viewBox="0.00 0.00 462.48 183.00" xmlns="http://www.w3.org/2000/svg" xmlns:xlink="http://www.w3.org/1999/xlink">
<g id="graph0" class="graph" transform="scale(1 1) rotate(0) translate(4 179)">
<title>%3</title>
<polygon fill="white" stroke="transparent" points="-4,4 -4,-179 458.48,-179 458.48,4 -4,4"/>
<!-- 0 -->
<g id="node1" class="node">
<title>0</title>
<ellipse fill="none" stroke="black" cx="26.65" cy="-65" rx="26.8" ry="26.8"/>
<text text-anchor="middle" x="26.65" y="-61.3" font-family="Times,serif" font-size="14.00">S0/0</text>
</g>
<!-- 0&#45;&gt;0 -->
<g id="edge6" class="edge">
<title>0&#45;&gt;0</title>
<path fill="none" stroke="red" d="M17.36,-90.24C16.71,-100.75 19.81,-109.65 26.65,-109.65 31.03,-109.65 33.87,-105.99 35.18,-100.61"/>
<polygon fill="red" stroke="red" points="38.7,-100.47 35.94,-90.24 31.72,-99.96 38.7,-100.47"/>
<text text-anchor="middle" x="26.65" y="-113.45" font-family="Times,serif" font-size="14.00"> 0</text>
</g>
<!-- 1 -->
<g id="node2" class="node">
<title>1</title>
<ellipse fill="none" stroke="black" cx="126.94" cy="-70" rx="26.8" ry="26.8"/>
<text text-anchor="middle" x="126.94" y="-66.3" font-family="Times,serif" font-size="14.00">S1/0</text>
</g>
<!-- 0&#45;&gt;1 -->
<g id="edge1" class="edge">
<title>0&#45;&gt;1</title>
<path fill="none" stroke="green" d="M50.02,-51.66C59.83,-47.37 71.53,-44.34 82.3,-47 86.5,-48.04 90.76,-49.57 94.87,-51.35"/>
<polygon fill="green" stroke="green" points="93.6,-54.63 104.13,-55.86 96.67,-48.34 93.6,-54.63"/>
<text text-anchor="middle" x="76.8" y="-50.8" font-family="Times,serif" font-size="14.00"> 1</text>
</g>
<!-- 1&#45;&gt;0 -->
<g id="edge7" class="edge">
<title>1&#45;&gt;0</title>
<path fill="none" stroke="red" d="M100.29,-68.7C89.14,-68.13 75.87,-67.45 63.75,-66.84"/>
<polygon fill="red" stroke="red" points="63.64,-63.33 53.47,-66.31 63.28,-70.32 63.64,-63.33"/>
<text text-anchor="middle" x="76.8" y="-71.8" font-family="Times,serif" font-size="14.00"> 0</text>
</g>
<!-- 2 -->
<g id="node3" class="node">
<title>2</title>
<ellipse fill="none" stroke="black" cx="227.24" cy="-98" rx="26.8" ry="26.8"/>
<text text-anchor="middle" x="227.24" y="-94.3" font-family="Times,serif" font-size="14.00">S2/0</text>
</g>
<!-- 1&#45;&gt;2 -->
<g id="edge2" class="edge">
<title>1&#45;&gt;2</title>
<path fill="none" stroke="green" d="M152.75,-77.07C164.5,-80.41 178.75,-84.47 191.56,-88.12"/>
<polygon fill="green" stroke="green" points="190.87,-91.56 201.44,-90.94 192.78,-84.83 190.87,-91.56"/>
<text text-anchor="middle" x="177.09" y="-88.8" font-family="Times,serif" font-size="14.00"> 1</text>
</g>
<!-- 2&#45;&gt;2 -->
<g id="edge10" class="edge">
<title>2&#45;&gt;2</title>
<path fill="none" stroke="orange" d="M217.95,-123.24C217.3,-133.75 220.4,-142.65 227.24,-142.65 231.62,-142.65 234.46,-138.99 235.77,-133.61"/>
<polygon fill="orange" stroke="orange" points="239.29,-133.47 236.53,-123.24 232.31,-132.96 239.29,-133.47"/>
<text text-anchor="middle" x="227.24" y="-146.45" font-family="Times,serif" font-size="14.00"> 1</text>
</g>
<!-- 3 -->
<g id="node4" class="node">
<title>3</title>
<ellipse fill="none" stroke="black" cx="327.53" cy="-98" rx="26.8" ry="26.8"/>
<text text-anchor="middle" x="327.53" y="-94.3" font-family="Times,serif" font-size="14.00">S3/0</text>
</g>
<!-- 2&#45;&gt;3 -->
<g id="edge3" class="edge">
<title>2&#45;&gt;3</title>
<path fill="none" stroke="green" d="M254.06,-98C265.24,-98 278.51,-98 290.62,-98"/>
<polygon fill="green" stroke="green" points="290.88,-101.5 300.88,-98 290.88,-94.5 290.88,-101.5"/>
<text text-anchor="middle" x="277.39" y="-101.8" font-family="Times,serif" font-size="14.00"> 0</text>
</g>
<!-- 3&#45;&gt;0 -->
<g id="edge8" class="edge">
<title>3&#45;&gt;0</title>
<path fill="none" stroke="red" d="M311.42,-119.38C298.34,-135.88 277.8,-157.46 253.89,-167 231.89,-175.78 223.44,-173.24 200.59,-167 144.56,-151.71 88.21,-113.12 55.69,-88.03"/>
<polygon fill="red" stroke="red" points="57.58,-85.07 47.56,-81.66 53.27,-90.58 57.58,-85.07"/>
<text text-anchor="middle" x="177.09" y="-163.8" font-family="Times,serif" font-size="14.00"> 0</text>
</g>
<!-- 4 -->
<g id="node5" class="node">
<title>4</title>
<ellipse fill="none" stroke="black" cx="427.83" cy="-43" rx="26.8" ry="26.8"/>
<text text-anchor="middle" x="427.83" y="-39.3" font-family="Times,serif" font-size="14.00">S4/1</text>
</g>
<!-- 3&#45;&gt;4 -->
<g id="edge4" class="edge">
<title>3&#45;&gt;4</title>
<path fill="none" stroke="green" d="M351.33,-85.24C364.36,-77.95 380.89,-68.7 395.16,-60.72"/>
<polygon fill="green" stroke="green" points="397.14,-63.62 404.15,-55.69 393.72,-57.52 397.14,-63.62"/>
<text text-anchor="middle" x="377.68" y="-76.8" font-family="Times,serif" font-size="14.00"> 1</text>
</g>
<!-- 4&#45;&gt;0 -->
<g id="edge9" class="edge">
<title>4&#45;&gt;0</title>
<path fill="none" stroke="red" d="M405.74,-27.72C386.58,-15.36 357.03,0 328.53,0 125.94,0 125.94,0 125.94,0 97.12,0 70.25,-19.68 51.92,-37.39"/>
<polygon fill="red" stroke="red" points="49.14,-35.22 44.6,-44.79 54.12,-40.14 49.14,-35.22"/>
<text text-anchor="middle" x="227.24" y="-3.8" font-family="Times,serif" font-size="14.00"> 0</text>
</g>
<!-- 4&#45;&gt;1 -->
<g id="edge5" class="edge">
<title>4&#45;&gt;1</title>
<path fill="none" stroke="green" d="M401.02,-44.95C359,-48.17 273.17,-54.96 200.59,-62 188.48,-63.18 175.25,-64.59 163.43,-65.91"/>
<polygon fill="green" stroke="green" points="163.02,-62.43 153.48,-67.02 163.81,-69.39 163.02,-62.43"/>
<text text-anchor="middle" x="277.39" y="-59.8" font-family="Times,serif" font-size="14.00"> 1</text>
</g>
</g>
</svg>
