<?xml version="1.0" encoding="UTF-8" standalone="no"?>
<!DOCTYPE svg PUBLIC "-//W3C//DTD SVG 1.1//EN"
 "http://www.w3.org/Graphics/SVG/1.1/DTD/svg11.dtd">
<!-- Generated by graphviz version 2.43.0 (0)
 -->
<!-- Title: %3 Pages: 1 -->
<svg width="462pt" height="179pt"
 viewBox="0.00 0.00 462.48 178.65" xmlns="http://www.w3.org/2000/svg" xmlns:xlink="http://www.w3.org/1999/xlink">
<g id="graph0" class="graph" transform="scale(1 1) rotate(0) translate(4 174.65)">
<title>%3</title>
<polygon fill="white" stroke="transparent" points="-4,4 -4,-174.65 458.48,-174.65 458.48,4 -4,4"/>
<!-- 0 -->
<g id="node1" class="node">
<title>0</title>
<ellipse fill="none" stroke="black" cx="26.65" cy="-65" rx="26.8" ry="26.8"/>
<text text-anchor="middle" x="26.65" y="-61.3" font-family="Times,serif" font-size="14.00">S0/0</text>
</g>
<!-- 0&#45;&gt;0 -->
<g id="edge5" class="edge">
<title>0&#45;&gt;0</title>
<path fill="none" stroke="red" d="M17.36,-90.24C16.71,-100.75 19.81,-109.65 26.65,-109.65 31.03,-109.65 33.87,-105.99 35.18,-100.61"/>
<polygon fill="red" stroke="red" points="38.7,-100.47 35.94,-90.24 31.72,-99.96 38.7,-100.47"/>
<text text-anchor="middle" x="26.65" y="-113.45" font-family="Times,serif" font-size="14.00"> 0</text>
</g>
<!-- 1 -->
<g id="node2" class="node">
<title>1</title>
<ellipse fill="none" stroke="black" cx="126.94" cy="-111" rx="26.8" ry="26.8"/>
<text text-anchor="middle" x="126.94" y="-107.3" font-family="Times,serif" font-size="14.00">S1/0</text>
</g>
<!-- 0&#45;&gt;1 -->
<g id="edge1" class="edge">
<title>0&#45;&gt;1</title>
<path fill="none" stroke="green" d="M46.95,-82.32C54.16,-88.03 62.7,-93.95 71.3,-98 77.26,-100.81 83.88,-103.04 90.4,-104.81"/>
<polygon fill="green" stroke="green" points="89.91,-108.29 100.45,-107.21 91.54,-101.48 89.91,-108.29"/>
<text text-anchor="middle" x="76.8" y="-104.8" font-family="Times,serif" font-size="14.00"> 1</text>
</g>
<!-- 1&#45;&gt;0 -->
<g id="edge6" class="edge">
<title>1&#45;&gt;0</title>
<path fill="none" stroke="red" d="M106.1,-93.98C98.97,-88.55 90.62,-82.94 82.3,-79 76.31,-76.17 69.68,-73.86 63.15,-71.99"/>
<polygon fill="red" stroke="red" points="63.66,-68.51 53.1,-69.4 61.92,-75.28 63.66,-68.51"/>
<text text-anchor="middle" x="76.8" y="-82.8" font-family="Times,serif" font-size="14.00"> 0</text>
</g>
<!-- 2 -->
<g id="node3" class="node">
<title>2</title>
<ellipse fill="none" stroke="black" cx="227.24" cy="-111" rx="26.8" ry="26.8"/>
<text text-anchor="middle" x="227.24" y="-107.3" font-family="Times,serif" font-size="14.00">S2/0</text>
</g>
<!-- 1&#45;&gt;2 -->
<g id="edge2" class="edge">
<title>1&#45;&gt;2</title>
<path fill="none" stroke="green" d="M153.77,-111C164.94,-111 178.21,-111 190.32,-111"/>
<polygon fill="green" stroke="green" points="190.58,-114.5 200.58,-111 190.58,-107.5 190.58,-114.5"/>
<text text-anchor="middle" x="177.09" y="-114.8" font-family="Times,serif" font-size="14.00"> 1</text>
</g>
<!-- 2&#45;&gt;2 -->
<g id="edge9" class="edge">
<title>2&#45;&gt;2</title>
<path fill="none" stroke="orange" d="M217.95,-136.24C217.3,-146.75 220.4,-155.65 227.24,-155.65 231.62,-155.65 234.46,-151.99 235.77,-146.61"/>
<polygon fill="orange" stroke="orange" points="239.29,-146.47 236.53,-136.24 232.31,-145.96 239.29,-146.47"/>
<text text-anchor="middle" x="227.24" y="-159.45" font-family="Times,serif" font-size="14.00"> 1</text>
</g>
<!-- 3 -->
<g id="node4" class="node">
<title>3</title>
<ellipse fill="none" stroke="black" cx="327.53" cy="-55" rx="26.8" ry="26.8"/>
<text text-anchor="middle" x="327.53" y="-51.3" font-family="Times,serif" font-size="14.00">S3/0</text>
</g>
<!-- 2&#45;&gt;3 -->
<g id="edge3" class="edge">
<title>2&#45;&gt;3</title>
<path fill="none" stroke="green" d="M251.04,-98.01C264.06,-90.59 280.6,-81.17 294.87,-73.04"/>
<polygon fill="green" stroke="green" points="296.9,-75.91 303.86,-67.92 293.44,-69.83 296.9,-75.91"/>
<text text-anchor="middle" x="277.39" y="-87.8" font-family="Times,serif" font-size="14.00"> 0</text>
</g>
<!-- 3&#45;&gt;0 -->
<g id="edge7" class="edge">
<title>3&#45;&gt;0</title>
<path fill="none" stroke="red" d="M300.75,-55.86C247.41,-57.65 124.85,-61.75 63.71,-63.79"/>
<polygon fill="red" stroke="red" points="63.27,-60.31 53.39,-64.14 63.5,-67.3 63.27,-60.31"/>
<text text-anchor="middle" x="177.09" y="-63.8" font-family="Times,serif" font-size="14.00"> 0</text>
</g>
<!-- 4 -->
<g id="node5" class="node">
<title>4</title>
<ellipse fill="none" stroke="black" cx="427.83" cy="-55" rx="26.8" ry="26.8"/>
<text text-anchor="middle" x="427.83" y="-51.3" font-family="Times,serif" font-size="14.00">S4/1</text>
</g>
<!-- 3&#45;&gt;4 -->
<g id="edge4" class="edge">
<title>3&#45;&gt;4</title>
<path fill="none" stroke="green" d="M354.36,-55C365.53,-55 378.8,-55 390.91,-55"/>
<polygon fill="green" stroke="green" points="391.18,-58.5 401.18,-55 391.18,-51.5 391.18,-58.5"/>
<text text-anchor="middle" x="377.68" y="-58.8" font-family="Times,serif" font-size="14.00"> 1</text>
</g>
<!-- 4&#45;&gt;0 -->
<g id="edge8" class="edge">
<title>4&#45;&gt;0</title>
<path fill="none" stroke="red" d="M407.87,-36.69C389.25,-20.69 359.23,0 328.53,0 125.94,0 125.94,0 125.94,0 97.12,0 70.25,-19.68 51.92,-37.39"/>
<polygon fill="red" stroke="red" points="49.14,-35.22 44.6,-44.79 54.12,-40.14 49.14,-35.22"/>
<text text-anchor="middle" x="227.24" y="-3.8" font-family="Times,serif" font-size="14.00"> 0</text>
</g>
<!-- 4&#45;&gt;2 -->
<g id="edge10" class="edge">
<title>4&#45;&gt;2</title>
<path fill="none" stroke="blue" d="M404.33,-68.3C390.33,-76.02 371.72,-85.31 354.18,-91 323.61,-100.91 314.63,-98.01 282.89,-103 276.82,-103.95 270.36,-104.93 264.1,-105.86"/>
<polygon fill="blue" stroke="blue" points="263.22,-102.45 253.83,-107.37 264.23,-109.38 263.22,-102.45"/>
<text text-anchor="middle" x="327.53" y="-103.8" font-family="Times,serif" font-size="14.00"> 1</text>
</g>
</g>
</svg>
