<?xml version="1.0" encoding="UTF-8" standalone="no"?>
<!DOCTYPE svg PUBLIC "-//W3C//DTD SVG 1.1//EN"
 "http://www.w3.org/Graphics/SVG/1.1/DTD/svg11.dtd">
<!-- Generated by graphviz version 2.43.0 (0)
 -->
<!-- Title: %3 Pages: 1 -->
<svg width="364pt" height="98pt"
 viewBox="0.00 0.00 364.19 98.30" xmlns="http://www.w3.org/2000/svg" xmlns:xlink="http://www.w3.org/1999/xlink">
<g id="graph0" class="graph" transform="scale(1 1) rotate(0) translate(4 94.3)">
<title>%3</title>
<polygon fill="white" stroke="transparent" points="-4,4 -4,-94.3 360.19,-94.3 360.19,4 -4,4"/>
<!-- 0 -->
<g id="node1" class="node">
<title>0</title>
<ellipse fill="none" stroke="black" cx="20.15" cy="-37.15" rx="20.3" ry="20.3"/>
<text text-anchor="middle" x="20.15" y="-33.45" font-family="Times,serif" font-size="14.00">S0</text>
</g>
<!-- 0&#45;&gt;0 -->
<g id="edge4" class="edge">
<title>0&#45;&gt;0</title>
<path fill="none" stroke="red" d="M11.58,-55.6C9.98,-65.85 12.84,-75.3 20.15,-75.3 24.83,-75.3 27.69,-71.42 28.72,-65.94"/>
<polygon fill="red" stroke="red" points="32.22,-65.6 28.72,-55.6 25.22,-65.6 32.22,-65.6"/>
<text text-anchor="middle" x="20.15" y="-79.1" font-family="Times,serif" font-size="14.00"> 0/0</text>
</g>
<!-- 1 -->
<g id="node2" class="node">
<title>1</title>
<ellipse fill="none" stroke="black" cx="118.44" cy="-63.15" rx="20.3" ry="20.3"/>
<text text-anchor="middle" x="118.44" y="-59.45" font-family="Times,serif" font-size="14.00">S1</text>
</g>
<!-- 0&#45;&gt;1 -->
<g id="edge1" class="edge">
<title>0&#45;&gt;1</title>
<path fill="none" stroke="green" d="M38.59,-45.68C44.71,-48.4 51.7,-51.2 58.3,-53.15 67.91,-55.99 78.65,-58.1 88.31,-59.64"/>
<polygon fill="green" stroke="green" points="87.87,-63.11 98.27,-61.09 88.88,-56.19 87.87,-63.11"/>
<text text-anchor="middle" x="69.3" y="-60.95" font-family="Times,serif" font-size="14.00"> 1/0</text>
</g>
<!-- 1&#45;&gt;0 -->
<g id="edge5" class="edge">
<title>1&#45;&gt;0</title>
<path fill="none" stroke="red" d="M103.98,-49.08C97.45,-43.27 89.12,-37.18 80.3,-34.15 70.8,-30.88 59.94,-30.54 50.14,-31.38"/>
<polygon fill="red" stroke="red" points="49.52,-27.93 40.04,-32.65 50.4,-34.87 49.52,-27.93"/>
<text text-anchor="middle" x="69.3" y="-37.95" font-family="Times,serif" font-size="14.00"> 0/0</text>
</g>
<!-- 2 -->
<g id="node3" class="node">
<title>2</title>
<ellipse fill="none" stroke="black" cx="237.74" cy="-52.15" rx="20.3" ry="20.3"/>
<text text-anchor="middle" x="237.74" y="-48.45" font-family="Times,serif" font-size="14.00">S2</text>
</g>
<!-- 1&#45;&gt;2 -->
<g id="edge2" class="edge">
<title>1&#45;&gt;2</title>
<path fill="none" stroke="green" d="M138.66,-64.69C154.97,-65.63 178.94,-66.14 199.59,-63.15 202.53,-62.72 205.55,-62.12 208.55,-61.41"/>
<polygon fill="green" stroke="green" points="209.73,-64.71 218.46,-58.7 207.89,-57.96 209.73,-64.71"/>
<text text-anchor="middle" x="178.09" y="-68.95" font-family="Times,serif" font-size="14.00"> 1/0</text>
</g>
<!-- 2&#45;&gt;1 -->
<g id="edge6" class="edge">
<title>2&#45;&gt;1</title>
<path fill="none" stroke="orange" d="M218.04,-46.8C201.64,-42.92 177.26,-39.17 156.59,-44.15 152.66,-45.09 148.68,-46.53 144.86,-48.2"/>
<polygon fill="orange" stroke="orange" points="143.22,-45.11 135.8,-52.67 146.32,-51.38 143.22,-45.11"/>
<text text-anchor="middle" x="178.09" y="-47.95" font-family="Times,serif" font-size="14.00"> 1/0</text>
</g>
<!-- 3 -->
<g id="node4" class="node">
<title>3</title>
<ellipse fill="none" stroke="black" cx="336.04" cy="-20.15" rx="20.3" ry="20.3"/>
<text text-anchor="middle" x="336.04" y="-16.45" font-family="Times,serif" font-size="14.00">S3</text>
</g>
<!-- 2&#45;&gt;3 -->
<g id="edge3" class="edge">
<title>2&#45;&gt;3</title>
<path fill="none" stroke="green" d="M257.31,-45.98C271.3,-41.33 290.72,-34.87 306.65,-29.58"/>
<polygon fill="green" stroke="green" points="308.14,-32.77 316.53,-26.3 305.93,-26.13 308.14,-32.77"/>
<text text-anchor="middle" x="286.89" y="-41.95" font-family="Times,serif" font-size="14.00"> 0/0</text>
</g>
<!-- 3&#45;&gt;0 -->
<g id="edge7" class="edge">
<title>3&#45;&gt;0</title>
<path fill="none" stroke="black" d="M315.74,-18.7C270.42,-15.69 153.83,-10.31 58.3,-26.15 55.37,-26.63 52.35,-27.28 49.36,-28.01"/>
<polygon fill="black" stroke="black" points="48.16,-24.71 39.46,-30.75 50.03,-31.46 48.16,-24.71"/>
<text text-anchor="middle" x="178.09" y="-19.95" font-family="Times,serif" font-size="14.00"> 1/1 0/0</text>
</g>
</g>
</svg>
