<?xml version="1.0" encoding="UTF-8" standalone="no"?>
<!DOCTYPE svg PUBLIC "-//W3C//DTD SVG 1.1//EN"
 "http://www.w3.org/Graphics/SVG/1.1/DTD/svg11.dtd">
<!-- Generated by graphviz version 2.43.0 (0)
 -->
<!-- Title: %3 Pages: 1 -->
<svg width="343pt" height="147pt"
 viewBox="0.00 0.00 343.19 147.30" xmlns="http://www.w3.org/2000/svg" xmlns:xlink="http://www.w3.org/1999/xlink">
<g id="graph0" class="graph" transform="scale(1 1) rotate(0) translate(4 143.3)">
<title>%3</title>
<polygon fill="white" stroke="transparent" points="-4,4 -4,-143.3 339.19,-143.3 339.19,4 -4,4"/>
<!-- 0 -->
<g id="node1" class="node">
<title>0</title>
<ellipse fill="none" stroke="black" cx="20.15" cy="-20.15" rx="20.3" ry="20.3"/>
<text text-anchor="middle" x="20.15" y="-16.45" font-family="Times,serif" font-size="14.00">S0</text>
</g>
<!-- 0&#45;&gt;0 -->
<g id="edge4" class="edge">
<title>0&#45;&gt;0</title>
<path fill="none" stroke="red" d="M11.58,-38.6C9.98,-48.85 12.84,-58.3 20.15,-58.3 24.83,-58.3 27.69,-54.42 28.72,-48.94"/>
<polygon fill="red" stroke="red" points="32.22,-48.6 28.72,-38.6 25.22,-48.6 32.22,-48.6"/>
<text text-anchor="middle" x="20.15" y="-62.1" font-family="Times,serif" font-size="14.00"> 0/0</text>
</g>
<!-- 1 -->
<g id="node2" class="node">
<title>1</title>
<ellipse fill="none" stroke="black" cx="118.44" cy="-46.15" rx="20.3" ry="20.3"/>
<text text-anchor="middle" x="118.44" y="-42.45" font-family="Times,serif" font-size="14.00">S1</text>
</g>
<!-- 0&#45;&gt;1 -->
<g id="edge1" class="edge">
<title>0&#45;&gt;1</title>
<path fill="none" stroke="green" d="M38.59,-28.68C44.71,-31.4 51.7,-34.2 58.3,-36.15 67.91,-38.99 78.65,-41.1 88.31,-42.64"/>
<polygon fill="green" stroke="green" points="87.87,-46.11 98.27,-44.09 88.88,-39.19 87.87,-46.11"/>
<text text-anchor="middle" x="69.3" y="-43.95" font-family="Times,serif" font-size="14.00"> 1/0</text>
</g>
<!-- 1&#45;&gt;0 -->
<g id="edge5" class="edge">
<title>1&#45;&gt;0</title>
<path fill="none" stroke="red" d="M103.98,-32.08C97.45,-26.27 89.12,-20.18 80.3,-17.15 70.8,-13.88 59.94,-13.54 50.14,-14.38"/>
<polygon fill="red" stroke="red" points="49.52,-10.93 40.04,-15.65 50.4,-17.87 49.52,-10.93"/>
<text text-anchor="middle" x="69.3" y="-20.95" font-family="Times,serif" font-size="14.00"> 0/0</text>
</g>
<!-- 2 -->
<g id="node3" class="node">
<title>2</title>
<ellipse fill="none" stroke="black" cx="216.74" cy="-86.15" rx="20.3" ry="20.3"/>
<text text-anchor="middle" x="216.74" y="-82.45" font-family="Times,serif" font-size="14.00">S2</text>
</g>
<!-- 1&#45;&gt;2 -->
<g id="edge2" class="edge">
<title>1&#45;&gt;2</title>
<path fill="none" stroke="green" d="M137.56,-53.67C151.81,-59.59 171.92,-67.95 188.17,-74.7"/>
<polygon fill="green" stroke="green" points="187.13,-78.05 197.71,-78.66 189.82,-71.59 187.13,-78.05"/>
<text text-anchor="middle" x="167.59" y="-72.95" font-family="Times,serif" font-size="14.00"> 1/0</text>
</g>
<!-- 2&#45;&gt;2 -->
<g id="edge7" class="edge">
<title>2&#45;&gt;2</title>
<path fill="none" stroke="orange" d="M208.17,-104.6C206.57,-114.85 209.43,-124.3 216.74,-124.3 221.43,-124.3 224.28,-120.42 225.31,-114.94"/>
<polygon fill="orange" stroke="orange" points="228.81,-114.6 225.31,-104.6 221.81,-114.6 228.81,-114.6"/>
<text text-anchor="middle" x="216.74" y="-128.1" font-family="Times,serif" font-size="14.00"> 1/0</text>
</g>
<!-- 3 -->
<g id="node4" class="node">
<title>3</title>
<ellipse fill="none" stroke="black" cx="315.04" cy="-33.15" rx="20.3" ry="20.3"/>
<text text-anchor="middle" x="315.04" y="-29.45" font-family="Times,serif" font-size="14.00">S3</text>
</g>
<!-- 2&#45;&gt;3 -->
<g id="edge3" class="edge">
<title>2&#45;&gt;3</title>
<path fill="none" stroke="green" d="M234.96,-76.67C249.75,-68.53 271.29,-56.68 288.15,-47.39"/>
<polygon fill="green" stroke="green" points="289.9,-50.43 296.97,-42.54 286.52,-44.3 289.9,-50.43"/>
<text text-anchor="middle" x="265.89" y="-67.95" font-family="Times,serif" font-size="14.00"> 0/0</text>
</g>
<!-- 3&#45;&gt;0 -->
<g id="edge6" class="edge">
<title>3&#45;&gt;0</title>
<path fill="none" stroke="red" d="M295,-30.53C255.22,-25.19 160.35,-13.25 80.3,-9.15 70.53,-8.65 67.97,-7.75 58.3,-9.15 55.36,-9.57 52.34,-10.18 49.34,-10.89"/>
<polygon fill="red" stroke="red" points="48.15,-7.58 39.43,-13.6 50,-14.34 48.15,-7.58"/>
<text text-anchor="middle" x="167.59" y="-19.95" font-family="Times,serif" font-size="14.00"> 0/0</text>
</g>
<!-- 3&#45;&gt;1 -->
<g id="edge8" class="edge">
<title>3&#45;&gt;1</title>
<path fill="none" stroke="blue" d="M294.75,-34.44C260.56,-36.72 189.17,-41.49 148.83,-44.18"/>
<polygon fill="blue" stroke="blue" points="148.56,-40.7 138.81,-44.85 149.03,-47.68 148.56,-40.7"/>
<text text-anchor="middle" x="216.74" y="-43.95" font-family="Times,serif" font-size="14.00"> 1/1</text>
</g>
</g>
</svg>
